<?xml version="1.0" standalone="no"?>
<!DOCTYPE svg PUBLIC "-//W3C//DTD SVG 1.1//EN" "http://www.w3.org/Graphics/SVG/1.1/DTD/svg11.dtd" >
<svg xmlns="http://www.w3.org/2000/svg">
<metadata>Generated by IcoMoon</metadata>
<defs>
<font id="icomoon" horiz-adv-x="1024">
<font-face units-per-em="1024" ascent="960" descent="-64" />
<missing-glyph horiz-adv-x="1024" />
<glyph unicode="&#x20;" horiz-adv-x="512" d="" />
<glyph unicode="&#xe13;" glyph-name="upload-filr-from-pc" d="M953.446-12.749h-304.998c-38.451 0-70.502 33.331-70.502 73.318v2.662h35.891v-2.662c0-21.35 16.64-37.325 35.891-37.325h306.278c20.48 0 35.891 17.306 35.891 37.325v723.61c0 21.35-16.691 37.325-35.891 37.325h-304.998c-20.531 0-35.891-17.306-35.891-37.325v-86.63h-35.891v86.63c0 39.987 32.051 73.318 70.502 73.318h304.998c38.451 0 70.451-33.331 69.171-74.65v-722.278c0-39.987-32-73.318-70.451-73.318zM770.202 129.843v37.325h51.251v-37.325h-51.251zM679.219 738.867h234.496v-37.325h-234.496v37.325zM727.91 560.282v-386.458c0-39.987-32.051-73.267-71.782-73.267h-585.626c-38.451 0-70.502 33.28-70.502 73.267v386.458c0 39.987 32.051 73.318 70.502 73.318h586.906c38.451 0 70.502-33.331 70.502-73.318zM35.891 560.282v-386.458c0-19.968 15.36-37.325 34.611-37.325h586.906c20.48 0 35.891 17.357 35.891 37.325v386.458c0 21.35-16.691 37.325-35.891 37.325h-585.626c-20.531 0-35.891-17.306-35.891-37.325zM497.203-3.43h-266.547v37.325h266.547v-37.325z" />
<glyph unicode="&#xe900;" glyph-name="Campaigns" d="M665.6 89.6v153.6h358.4v-307.2h-358.4v102.4h-512v614.4h-153.6v307.2h358.4v-307.2h-153.6v-153.6h460.8v153.6h358.4v-358.4h-358.4v153.6h-460.8v-358.4h460.8zM972.8-17.459v209.459h-256v-209.459h256zM307.2 704v209.459h-256v-209.459h256zM716.8 345.6h256v256h-256v-256z" />
<glyph unicode="&#xe901;" glyph-name="Dashboard" d="M768 755.2h-512v-51.2h512v51.2zM768 601.6h-512v-51.2h512v51.2zM768 448h-512v-51.2h512v51.2zM1024 960h-1024v-1023.949l256-0.051v51.2h512v-51.2l256 0.051v1023.949zM768 38.4h-512v102.4h512v-102.4zM972.8-12.8h-153.6v204.8h-614.4v-204.8h-153.6v921.6h921.6v-921.6z" />
<glyph unicode="&#xe902;" glyph-name="Forms" d="M870.4-63.949h-716.8v1023.949h563.2l153.6-146.278v-877.67zM716.8 908.8v-102.4h102.4l-102.4 102.4zM819.2 755.2h-153.6v153.6h-460.8v-921.6h614.4v768zM460.8 755.2h-204.8v51.2h204.8v-51.2zM768 550.4h-512v153.6h512v-153.6zM716.8 652.8h-409.6v-51.2h409.6v51.2zM460.8 448h-204.8v51.2h204.8v-51.2zM768 243.2h-512v153.6h512v-153.6zM716.8 345.6h-409.6v-51.2h409.6v51.2zM768 38.4h-512v153.6h512v-153.6zM716.8 140.8h-409.6v-51.2h409.6v51.2z" />
<glyph unicode="&#xe903;" glyph-name="Help" d="M512-63.949c-282.317 0-512 229.683-512 512s229.683 512 512 512c282.317 0 512-229.683 512-512s-229.683-512-512-512zM512 892.877c-245.299 0-444.877-199.526-444.877-444.826s199.578-444.877 444.877-444.877c245.248 0 444.826 199.578 444.826 444.877s-199.578 444.826-444.826 444.826zM545.536 402.995v-86.886c0-18.534-15.002-33.587-33.536-33.587-18.586 0-33.587 15.053-33.587 33.587v116.941c0 18.534 15.002 33.587 33.587 33.587 53.043 0 96.154 43.11 96.154 96.154 0 52.992-43.11 96.154-96.154 96.154s-96.154-43.162-96.154-96.154c0-18.534-15.053-33.587-33.587-33.587s-33.587 15.053-33.587 33.587c0 90.061 73.267 163.328 163.328 163.328s163.277-73.267 163.277-163.328c0-78.541-55.706-144.282-129.741-159.795zM512 259.277c23.296 0 42.138-18.893 42.138-42.138 0-23.296-18.842-42.138-42.138-42.138-23.245 0-42.138 18.842-42.138 42.138 0 23.245 18.893 42.138 42.138 42.138z" />
<glyph unicode="&#xe904;" glyph-name="Menu-Off" d="M0 140.8v102.4h1024v-102.4h-1024zM0 499.2h1024v-102.4h-1024v102.4zM0 755.2h1024v-102.4h-1024v102.4z" />
<glyph unicode="&#xe905;" glyph-name="Menu-On" d="M716.8-64v1024h102.4v-1024h-102.4zM460.8 960h102.4v-1024h-102.4v1024zM204.8 960h102.4v-1024h-102.4v1024z" />
<glyph unicode="&#xe906;" glyph-name="Message" d="M0.154 755.149v-665.446h1023.693v665.446h-1023.693zM512 344.218l-358.4 359.782h716.8l-358.4-359.782zM307.2 448l-256-307.2v563.2l256-256zM358.4 396.8l153.6-153.6 153.6 153.6 204.8-256h-716.8l204.8 256zM716.8 448l256 256v-563.2l-256 307.2z" />
<glyph unicode="&#xe907;" glyph-name="Settings" d="M882.637 463.411l141.363 42.906c-7.168 63.539-25.907 123.597-54.016 177.971l-141.363-42.906c-18.227 29.85-40.294 56.525-65.434 79.565l69.581 130.304c-48.333 38.502-103.731 68.506-163.942 87.706l-69.683-130.355c-33.126 8.038-67.635 11.571-102.554 10.086l-42.906 141.312c-63.539-7.168-123.597-25.856-177.971-54.016l42.957-141.312c-29.901-18.227-56.576-40.346-79.616-65.434l-130.304 69.53c-38.502-48.333-68.506-103.731-87.706-163.942l130.355-69.632c-8.038-33.126-11.571-67.635-10.086-102.554l-141.312-42.957c7.168-63.539 25.907-123.546 54.016-177.971l141.363 42.957c18.227-29.85 40.294-56.576 65.434-79.616l-69.581-130.304c48.333-38.451 103.731-68.506 163.994-87.654l69.581 130.355c33.126-8.090 67.635-11.571 102.605-10.086l42.906-141.363c63.539 7.219 123.546 25.907 177.971 54.016l-42.957 141.363c29.901 18.227 56.576 40.294 79.616 65.434l130.304-69.581c38.502 48.333 68.454 103.731 87.706 163.942l-130.355 69.683c8.038 33.126 11.52 67.635 10.035 102.554zM576.768 234.906c-117.709-35.738-242.176 30.669-277.862 148.378-35.738 117.658 30.669 242.125 148.378 277.862 117.658 35.738 242.125-30.72 277.862-148.429 35.686-117.658-30.72-242.074-148.378-277.811z" />
<glyph unicode="&#xe908;" glyph-name="Statistics" d="M1024 133.99v621.261l-204.8-0.051v-614.4h-51.2v512h-204.8v-512h-102.4v358.4h-204.8v-358.4h-51.2v204.8h-204.8v-256l1024 0.051v44.339zM51.2 140.8v153.6h102.4v-153.6h-102.4zM307.2 140.8v307.2h102.4v-307.2h-102.4zM614.4 140.8v460.8h102.4v-460.8h-102.4zM870.4 140.8v563.2h102.4v-563.2h-102.4z" />
<glyph unicode="&#xe909;" glyph-name="Subscribe-This-Month" d="M944.333 10.906c-49.408-46.182-117.35-74.906-192.41-74.906-74.752 0-142.387 28.518-191.488 74.342-46.797-7.834-102.912-13.619-168.243-13.619-104.038 0-230.4 14.336-375.91 57.446l-15.411 4.557-0.563 3.328v212.326c0 144.486 124.006 262.042 276.429 262.042h183.194c84.070 0 159.539-35.789 210.278-92.16-7.578-5.888-13.773-10.547-20.685-15.872 31.642 12.134 66.099 19.149 102.4 19.149 75.059 0 143.053-28.723 192.41-74.906 49.152-46.387 79.667-110.285 79.667-180.89 0-70.554-30.515-134.451-79.667-180.838zM923.392 352.973c-43.93 41.267-104.55 66.611-171.469 66.611-66.97 0-127.59-25.344-171.52-66.611-38.144-36.045-62.515-84.429-68.403-137.933v-46.592c5.888-53.453 30.208-101.837 68.403-137.882 43.93-41.267 104.55-66.662 171.52-66.662 66.918 0 127.539 25.395 171.469 66.662s71.117 98.304 71.117 161.178c0 62.925-27.187 119.962-71.117 161.229zM740.915 67.174c-36.301 43.11-79.002 75.981-108.902 86.221l70.451 41.062 34.202-63.642c0 0 55.501 129.331 143.053 172.442-2.15-30.771-10.65-57.498 4.301-90.317-38.451-8.243-117.504-100.608-143.104-145.766zM368.333 550.349c-119.194 0-215.91 91.597-215.91 204.595s96.717 204.646 215.91 204.646c119.245 0 215.91-91.597 215.91-204.595 0-113.050-96.666-204.646-215.91-204.646z" />
<glyph unicode="&#xe90a;" glyph-name="Subscribers-Today" d="M944.333 10.906c-49.408-46.182-117.35-74.906-192.41-74.906-74.752 0-142.387 28.518-191.488 74.342-46.797-7.834-102.912-13.619-168.243-13.619-104.038 0-230.4 14.336-375.91 57.446l-15.411 4.557-0.563 3.328v212.326c0 144.486 124.006 262.042 276.429 262.042h183.194c84.070 0 159.539-35.789 210.278-92.16-7.578-5.888-13.773-10.547-20.685-15.872 31.642 12.134 66.099 19.149 102.4 19.149 75.059 0 143.053-28.723 192.41-74.906 49.152-46.387 79.667-110.285 79.667-180.89 0-70.554-30.515-134.451-79.667-180.838zM923.392 352.973c-43.93 41.267-104.55 66.611-171.469 66.611-66.97 0-127.59-25.344-171.52-66.611-38.144-36.045-62.515-84.429-68.403-137.933v-46.592c5.888-53.453 30.208-101.837 68.403-137.882 43.93-41.267 104.55-66.662 171.52-66.662 66.918 0 127.539 25.395 171.469 66.662s71.117 98.304 71.117 161.178c0 62.925-27.187 119.962-71.117 161.229zM808.397 38.4h-107.776v102.4h-107.776v102.4h107.776v102.4h107.776v-102.4h107.827v-102.4h-107.827v-102.4zM368.333 550.349c-119.194 0-215.91 91.597-215.91 204.595s96.717 204.646 215.91 204.646c119.245 0 215.91-91.597 215.91-204.595 0-113.050-96.666-204.646-215.91-204.646z" />
<glyph unicode="&#xe90b;" glyph-name="Subscribers" d="M981.862 293.683c-15.616 15.206-76.493 38.502-148.48 65.178-13.978 5.171-25.907 9.574-33.792 12.698-9.882 3.891-35.021 13.773-38.195 20.326 56.269 5.99 85.862 23.654 123.29 46.029 5.325 3.174 8.346 9.114 7.731 15.309-0.614 6.144-4.71 11.418-10.598 13.517-45.466 16.077-50.432 68.915-49.818 147.712v19.763c0 87.757-80.333 140.186-160 140.186-51.354 0-103.475-21.965-134.298-60.928-29.030 57.395-84.275 92.928-153.702 92.928-103.629 0-176.026-78.95-176.026-192 0-79.462 27.648-148.070 80.026-198.861v-25.139c0-5.683-12.902-13.21-43.162-25.088-8.653-3.43-21.658-8.243-37.018-13.926-78.746-29.133-145.254-54.579-162.15-71.066-37.939-36.966-45.67-176.589-45.67-177.92 0-13.414 7.629-29.184 24.832-34.253 37.171-10.394 180.685-29.747 359.168-29.747s321.997 19.354 359.424 29.798c2.97 0.87 5.53 2.15 7.936 3.635 125.235 4.352 220.774 17.92 249.139 25.856 16.23 4.71 23.501 19.763 23.501 32.512 0 1.229-7.117 129.331-42.138 163.482zM544.41 371.558c-4.864-1.946-11.418-4.403-18.893-7.168-0.768 0.307-1.638 0.614-2.355 0.922-30.259 11.878-43.162 19.405-43.162 25.088v25.139c2.202 2.15 4.147 4.506 6.246 6.707 26.829-14.694 54.067-25.856 96.358-30.362-3.174-6.554-28.314-16.435-38.195-20.326zM33.638 98.918c-1.536 0.41-1.638 3.482-1.638 3.482 0.102 19.61 12.902 132.506 35.994 155.034 13.414 13.056 106.291 47.411 150.886 63.949 15.616 5.786 28.928 10.701 37.683 14.131 37.12 14.592 63.437 27.085 63.437 54.886v32c0 4.506-1.894 8.755-5.171 11.776-49.664 45.67-76.442 106.342-76.442 180.224 0 95.693 59.494 161.587 145.613 161.587s145.613-65.894 145.613-161.587c0-73.882-26.778-134.554-76.442-180.224-3.277-3.021-5.171-7.27-5.171-11.776v-32c0-27.802 26.317-40.294 63.437-54.886 8.755-3.43 22.067-8.346 37.632-14.131 44.646-16.538 137.523-50.893 150.938-64 23.091-22.477 35.891-135.373 35.994-154.982 0 0-0.102-3.072-1.382-3.43-27.392-7.629-161.229-30.157-350.618-30.157s-323.226 22.528-350.362 30.106zM991.693 128.41c-19.917-5.581-102.656-18.893-223.795-23.962-1.075 17.306-10.138 141.312-45.568 175.872-16.179 15.77-77.773 39.731-151.962 67.277 26.675 11.418 44.544 23.142 44.544 45.619v14.592c0 8.858-7.117 16.026-15.974 16.026h-13.722c-33.587 3.635-55.552 11.622-77.875 23.398 34.406 46.285 52.634 103.117 52.634 167.168 0 22.323-2.918 43.213-8.192 62.566 20.634 42.701 71.526 67.021 120.218 67.021 63.027 0 129.587-39.475 129.587-109.773v-19.507c-0.461-61.082-0.614-129.126 42.547-163.43-25.088-13.978-48.026-23.398-85.35-27.443h-13.722c-8.858 0-16.026-7.168-16.026-16.026v-14.592c0-26.266 24.371-37.888 58.829-51.456 8.038-3.123 20.173-7.629 34.406-12.954 40.653-15.002 125.235-46.336 137.267-58.061 20.634-20.122 32.307-122.675 32.461-140.544 0-0.768-0.307-1.69-0.307-1.792z" />
<glyph unicode="&#xe90c;" glyph-name="Templates" d="M-0.154-12.595v921.549h1024.358v-921.549h-1024.358zM972.8 857.6h-921.6v-204.8h921.6v204.8zM972.8 601.6h-921.6v-563.2h921.6v563.2zM204.8 550.4v-102.4l566.323 1.178 48.077-1.178h51.2v-204.8c0 0-74.854 0-102.4 0h-204.8v-102.4h-204.8v102.4h-153.6c-20.070 0-51.2 0-51.2 0v204.8c-2.048 14.438 0 102.4 0 102.4h51.2zM204.8 294.4h204.8v-102.4h102.4v102.4h307.2v102.4h-614.4v-102.4zM766.618 757.965l-49.818-2.765v51.2h51.2l-1.382-48.435zM870.4 755.2h-51.2v51.2h51.2v-51.2z" />
<glyph unicode="&#xe90d;" glyph-name="Total-Unsubscribers" d="M617.933 708.352c47.36-29.952 80.538-80.691 86.63-139.571 19.302-9.114 40.704-14.336 63.437-14.336 82.995 0 150.17 67.891 150.17 151.603 0 83.763-67.174 151.654-150.17 151.654-82.176 0-148.787-66.662-150.067-149.35zM519.526 397.875c82.944 0 150.221 67.891 150.221 151.654s-67.277 151.603-150.221 151.603c-82.893 0-150.17-67.891-150.17-151.603 0-83.763 67.277-151.654 150.17-151.654zM583.27 387.533h-127.437c-106.035 0-192.307-87.091-192.307-194.15v-157.338l0.41-2.509 10.701-3.379c101.222-31.898 189.133-42.547 261.478-42.547 141.312 0 223.232 40.653 228.301 43.264l10.035 5.12h1.075v157.389c0 107.059-86.221 194.15-192.256 194.15zM831.744 544.102h-126.464c-1.382-51.098-22.938-97.075-57.088-130.202 94.208-28.262 163.174-116.531 163.174-220.774v-48.486c124.826 4.659 196.813 40.346 201.574 42.752l10.035 5.171h1.075v157.389c0 107.059-86.272 194.15-192.307 194.15zM256 554.445c29.389 0 56.73 8.653 79.872 23.398 7.373 48.486 33.126 90.829 69.888 119.654 0.154 2.867 0.41 5.683 0.41 8.55 0 83.763-67.226 151.654-150.17 151.654s-150.17-67.891-150.17-151.654c0-83.712 67.226-151.603 150.17-151.603zM390.912 413.901c-33.997 32.922-55.501 78.694-57.088 129.485-4.71 0.307-9.318 0.717-14.131 0.717h-127.437c-106.035 0-192.256-87.091-192.256-194.15v-157.389l0.358-2.406 10.752-3.43c81.203-25.6 153.651-37.376 216.576-41.114v47.514c0 104.243 68.915 192.512 163.226 220.774z" />
<glyph unicode="&#xe90e;" glyph-name="Unsubscribed-Today" d="M901.069 10.906c-44.39-46.182-105.574-74.906-173.158-74.906-67.277 0-128.102 28.518-172.288 74.342-42.189-7.834-92.672-13.619-151.45-13.619-93.645 0-207.36 14.336-338.278 57.446l-13.926 4.557-0.512 3.328v212.326c0 144.486 111.616 262.042 248.781 262.042h164.864c75.725 0 143.616-35.789 189.286-92.16-6.861-5.888-12.39-10.547-18.637-15.872 28.467 12.134 59.494 19.149 92.16 19.149 67.584 0 128.768-28.723 173.158-74.906 44.237-46.387 71.731-110.285 71.731-180.89 0-70.554-27.494-134.451-71.731-180.838zM882.278 352.973c-39.526 41.267-94.157 66.611-154.368 66.611s-114.842-25.344-154.368-66.611c-34.304-36.045-56.269-84.429-61.542-137.882v-46.643c5.274-53.453 27.187-101.837 61.542-137.882 39.526-41.267 94.157-66.662 154.368-66.662s114.842 25.395 154.368 66.662c39.526 41.267 64 98.304 64 161.178 0 62.925-24.474 119.962-64 161.229zM627.2 206.797h201.574v-30.054h-201.574v30.054zM382.72 550.349c-107.315 0-194.355 91.597-194.355 204.595s87.040 204.646 194.355 204.646c107.315 0 194.304-91.597 194.304-204.595 0-113.050-86.989-204.646-194.304-204.646z" />
<glyph unicode="&#xe910;" glyph-name="Add-One-At-A-Time" d="M633.19-64c-153.088 0-278.579 117.35-287.795 265.011h-345.395v17.357c0 203.008 133.325 362.086 307.712 362.086 85.402 0 160.87-38.195 215.757-100.966 33.843 13.67 70.861 21.299 109.722 21.299 158.976 0 288.358-126.72 288.358-282.419s-129.382-282.368-288.358-282.368zM307.712 545.69c-149.606 0-267.776-134.758-275.149-309.914h312.832c6.093 97.946 63.437 182.528 146.022 228.352-48.435 50.944-112.486 81.562-183.706 81.562zM633.19 466.022c-30.618 0-59.853-5.632-87.040-15.411-10.906-3.942-21.555-8.397-31.744-13.722-74.752-39.168-126.976-113.971-133.222-201.114-0.41-5.786-0.87-11.52-0.87-17.408 0-5.837 0.461-11.571 0.87-17.357 9.165-128.41 118.528-230.246 252.006-230.246 139.418 0 252.877 111.104 252.877 247.654 0 136.499-113.459 247.603-252.877 247.603zM649.318 82.278h-20.941v146.278h-146.637v20.89h146.637v146.33h20.941v-146.33h146.586v-20.89h-146.586v-146.278zM307.712 599.296c-101.581 0-184.218 80.947-184.218 180.429 0 99.43 82.637 180.378 184.218 180.378s184.218-80.947 184.218-180.429c0-99.43-82.637-180.378-184.218-180.378zM307.712 925.338c-82.022 0-148.736-65.331-148.736-145.664 0-80.282 66.714-145.613 148.736-145.613s148.736 65.331 148.736 145.664c0 80.282-66.714 145.613-148.736 145.613z" />
<glyph unicode="&#xe911;" glyph-name="Add-Subscriber-Responsive" d="M755.354-64c-33.075 0-63.846 9.626-89.6 26.061-8.858 5.683-24.013 11.213-34.611 11.213h-359.578c-19.354 0-37.12 7.475-50.176 21.094-13.005 13.67-19.661 31.693-18.688 50.893l4.506 87.962c0.512 10.547-7.578 19.046-18.176 19.046v0h-26.266c-19.866 0-36.966 7.782-48.179 21.811-11.213 13.978-14.899 32.256-10.394 51.405 5.171 22.221 12.442 53.197 22.63 96.205 22.784 96.41 99.123 141.773 148.89 161.587 9.83 3.891 11.725 12.339 4.659 20.122-44.288 48.538-71.424 112.794-71.424 183.296 0 150.733 123.29 273.306 274.79 273.306s274.79-122.573 274.79-273.306c0-71.066-27.546-135.731-72.448-184.371-7.117-7.731-5.274-16.23 4.506-20.224 49.715-20.378 123.597-65.741 146.022-160.41 6.912-29.184 12.442-52.787 16.947-71.885 2.406-10.24 11.162-23.757 18.688-31.13 30.464-30.003 49.357-71.475 49.357-117.35 0-91.136-74.598-165.325-166.246-165.325zM729.139 670.72c0.41 5.222 0.666 10.598 0.666 15.974 0 134.912-110.387 244.736-246.067 244.736-135.731 0-246.118-109.824-246.118-244.736 0-5.325 0.205-10.65 0.614-15.923 0.666-8.806 10.24-15.36 20.736-14.336 62.72 6.093 191.693 28.723 253.133 112.333 9.37 12.8 19.814 18.893 31.13 18.125 11.11-0.819 20.429-8.243 27.699-22.016 19.251-36.557 61.44-94.925 137.523-107.93 10.445-1.741 20.019 4.915 20.685 13.773zM716.544 608.154c3.379 9.933-3.174 18.79-13.568 20.582-87.603 14.95-135.578 81.306-157.491 122.829-0.666 1.331-1.331 2.458-1.946 3.379-1.229 1.792-4.045 1.946-5.581 0.205-0.768-0.87-1.69-1.894-2.662-3.226-67.738-92.211-202.65-117.146-270.746-123.802-10.496-1.075-17.050-9.882-13.67-19.866 32.922-96.614 124.723-166.349 232.806-166.349 51.558 0 99.379 15.872 138.906 42.957 8.704 5.939 15.411 11.725 15.514 12.134 0.051 0.41 0.461 0.717 0.87 0.614 0.41-0.051 7.373 5.222 15.002 12.544 28.16 26.88 49.766 60.416 62.566 97.997zM519.066 399.514c4.096 9.677-0.973 16.128-11.52 15.104-7.834-0.768-15.77-1.229-23.808-1.229-9.574 0-18.944 0.563-28.262 1.587-10.496 1.178-15.565-5.12-11.418-14.746l30.157-70.554c4.147-9.677 10.854-9.677 15.002 0l29.85 69.837zM508.826 302.694c-4.147-9.626 1.075-17.51 11.622-17.51h111.104c10.547 0 18.944 3.584 23.501 9.933 4.608 6.4 5.274 15.411 1.894 25.344l-36.659 107.725c-3.379 9.933-13.619 13.926-23.296 9.574-5.837-2.611-11.827-5.018-17.869-7.219-9.933-3.635-21.555-13.824-25.702-23.501l-44.595-104.346zM409.446 408.218c-4.147 9.677-15.718 20.019-25.549 23.859-5.786 2.253-11.469 4.71-17.050 7.373-9.523 4.557-19.712 0.717-23.091-9.267l-37.325-109.722c-3.379-9.933-2.714-18.944 1.843-25.344 4.608-6.349 12.954-9.933 23.552-9.933h111.053c10.598 0 15.77 7.885 11.674 17.562l-45.107 105.472zM808.653 315.187c-21.914 92.467-101.786 131.584-143.974 146.176-9.984 3.43-19.917 4.352-21.862 2.867s-0.819-10.701 2.56-20.634l38.758-113.971c6.502-18.944 4.403-37.12-5.734-51.098-10.138-14.080-26.778-21.811-46.848-21.811h-299.725c-20.070 0-36.71 7.731-46.848 21.811-10.138 14.029-12.186 32.205-5.734 51.098l39.578 116.378c3.379 9.984 5.018 18.842 3.686 19.814-1.382 1.024-10.752-0.102-20.787-3.43-41.318-13.722-124.57-52.531-146.995-147.251-10.138-43.008-17.408-73.933-22.63-96.154-2.458-10.496-0.717-20.122 4.915-27.187 5.683-7.066 14.797-11.008 25.702-11.008h56.525c10.547 0 18.688-8.499 18.176-18.995l-6.042-117.965c-0.563-11.264 3.277-21.862 10.803-29.798 7.578-7.885 18.022-12.237 29.338-12.237h332.237c10.547 0 13.875 6.758 8.448 15.821-14.643 24.576-23.142 53.146-23.142 83.712 0 91.187 74.598 165.325 166.298 165.325 17.562 0 34.458-2.765 50.33-7.834 10.086-3.226 15.923 1.434 13.466 11.674-3.072 13.21-6.605 28.006-10.496 44.698zM755.354 229.222c-70.963 0-128.666-57.344-128.666-127.898 0-70.502 57.702-127.898 128.666-127.898 70.912 0 128.614 57.395 128.614 127.898 0 70.554-57.702 127.898-128.614 127.898zM822.784 82.637h-29.491c-10.598 0-19.149-8.55-19.149-19.046v-29.286c0-10.342-8.448-18.739-18.79-18.739-10.394 0-18.842 8.397-18.842 18.739v29.338c0 10.496-8.55 18.995-19.149 18.995h-29.491c-10.342 0-18.79 8.397-18.79 18.688 0 10.342 8.448 18.739 18.79 18.739h29.491c10.598 0 19.149 8.55 19.149 19.046v29.286c0 10.291 8.448 18.688 18.842 18.688 10.342 0 18.79-8.397 18.79-18.688v-29.286c0-10.547 8.55-19.046 19.149-19.046h29.491c10.394 0 18.842-8.397 18.842-18.739 0-10.291-8.499-18.688-18.842-18.688z" />
<glyph unicode="&#xe912;" glyph-name="Copy-n-Paste" d="M978.125 391.68c29.901-41.984 47.155-92.826 46.029-144.742 0-142.541-120.832-259.686-270.438-259.686-88.627 0-168.038 40.909-217.498 104.96h-332.544c-11.52 0-20.736 8.858-20.736 19.917v149.146h-162.253c-5.734 0-11.52 2.253-14.95 5.53-3.482 3.328-5.734 8.858-5.734 14.387v158.003c0 26.522 0 58.573 19.558 87.296 25.293 37.581 69.018 57.446 108.134 75.11 11.52 5.53 23.040 11.059 32.256 15.514 12.646 6.605 22.989 15.462 10.342 50.79-12.646 33.178-23.040 67.43-18.432 111.616 6.912 71.834 75.981 129.28 153.037 129.28h2.304c77.107 0 144.998-57.446 153.088-129.28 2.304-15.462 1.126-29.85 0-43.11 9.165 1.126 18.381 2.202 27.597 2.202h2.304c9.216 0 18.432 0 27.597-2.202-1.126 13.261-1.126 27.648 0 43.11 6.912 71.834 75.981 129.28 153.088 129.28h2.304c77.056 0 144.947-57.446 153.037-129.28 4.608-44.186-5.786-78.438-18.432-111.616-13.824-35.328-2.304-44.186 10.342-50.79 10.394-5.53 20.736-9.984 32.256-15.514 39.117-17.664 82.842-37.53 108.134-75.11 19.61-28.723 20.736-60.774 19.61-88.422v-46.387zM225.536 260.198v-130.406h285.389c-17.306 34.253-27.648 72.96-27.648 113.818 0 4.403 0 9.933 0 14.387 1.178 14.336 2.304 27.597 5.786 40.858 6.861 29.85 19.558 57.446 35.635 82.893-11.469-3.328-22.989-4.454-34.509-4.454-1.126 0-2.304 0-3.43 0-31.078 1.126-57.549 11.059-78.285 22.118-11.469 6.656-21.862 13.261-29.901 19.917-3.482-3.328-6.912-6.656-11.52-8.858-1.126 0-3.43-1.126-4.608-2.202-10.342-5.53-21.862-9.984-33.382-15.462-35.635-15.514-72.448-32.051-90.88-59.699-6.912-8.806-10.342-19.866-11.52-33.126-1.126-8.858-1.126-18.79-1.126-30.976v-8.806zM144.947 562.944c-35.635-15.462-72.499-32.051-90.88-59.648-11.52-16.589-13.824-36.506-12.646-66.304v-138.138h143.821c1.178 18.79 6.912 38.707 18.432 56.371 25.293 37.581 69.018 57.446 108.134 75.11 10.394 4.454 21.862 9.984 31.078 14.387 12.646 6.605 23.040 15.462 10.342 50.842-6.861 17.664-12.646 35.328-16.077 55.245-10.394-2.202-19.558-3.328-29.952-3.328-1.126 0-2.304 0-3.43 0-49.459 1.126-87.45 25.395-109.312 41.984-4.608-4.403-9.216-7.731-16.128-11.059-10.342-5.53-21.862-9.933-33.382-15.462zM416.563 773.99c-4.608 50.842-55.245 92.826-110.49 92.826h-2.304c-55.245 0-105.882-43.11-111.616-92.826-3.482-33.126 3.43-58.573 16.128-93.901 6.861-19.917 9.165-37.581 6.861-53.043 13.824-12.186 47.206-36.454 88.627-37.581 10.342 0 19.558 1.126 28.774 3.328 0 5.53 1.126 9.933 1.126 15.462 4.608 46.387 36.864 88.371 79.411 110.49 3.482 18.79 5.786 35.379 3.482 55.245zM528.179 691.149c-12.698 4.403-25.344 6.605-37.99 6.605h-2.304c-12.646 0-26.47-2.202-37.99-6.605-21.862-8.858-41.421-23.245-55.194-42.035-8.090-9.933-13.824-22.067-16.128-34.253 0-3.277-1.178-6.605-1.178-9.933-1.126-13.261-1.126-26.522 1.178-38.656 1.126-12.186 4.608-25.446 9.216-38.707 1.126-5.478 3.43-11.008 5.734-16.538 6.912-19.917 9.216-37.581 6.912-53.043 2.304-2.202 5.734-5.53 9.216-7.731 16.077-12.186 44.851-28.723 79.411-29.85 27.597-1.075 54.067 9.933 80.538 29.85 3.43 2.202 5.734 5.53 9.216 7.731-2.304 15.462 0 33.126 6.861 53.043 2.304 5.53 3.482 11.059 5.786 16.538 4.608 14.387 6.912 27.648 9.216 39.782 2.304 12.186 2.304 24.32 1.126 37.581-1.126 3.328-1.126 6.656-2.304 9.933-3.43 12.186-9.216 24.32-16.128 34.253-13.773 17.715-33.331 33.178-55.194 42.035zM673.178 866.816h-2.304c-54.118 0-104.755-43.11-110.49-92.826-2.304-19.866-1.178-36.454 3.43-55.245 42.598-22.118 74.803-64.102 79.411-110.49 1.178-4.403 1.178-9.933 1.178-14.387 8.038-2.202 18.381-4.403 27.597-4.403 31.078-1.126 60.979 12.134 89.754 37.581-2.304 15.462 0 33.126 6.912 53.043 12.646 35.328 19.558 60.774 16.128 93.901-5.786 50.842-56.422 92.826-111.616 92.826zM924.006 504.371c-18.381 27.648-55.245 44.237-90.88 59.699-12.698 5.53-23.040 9.933-34.56 16.538-5.734 3.328-11.469 6.656-16.077 11.059-33.382-27.597-70.195-41.984-108.186-41.984-1.126 0-2.304 0-3.43 0-10.394 0-20.736 1.126-29.952 3.328-3.43-18.79-9.216-37.581-16.077-55.245-4.608-11.059-5.786-19.917-5.786-26.522 40.294 22.067 86.323 35.328 135.782 35.328 70.195 0 133.478-25.395 181.811-67.379 0 27.597-1.126 48.64-12.646 65.178zM936.653 376.218c-42.547 51.917-108.134 86.17-181.811 86.17-37.939 0-74.803-9.933-105.83-25.395-8.090-3.328-15.002-7.731-21.862-12.186-5.786-4.403-10.394-7.731-16.128-12.134-1.178 0-1.178-1.126-2.304-1.126-14.95-12.134-28.774-26.522-40.294-41.984-16.077-22.067-27.597-45.261-34.509-71.782-3.43-13.261-5.734-26.522-6.912-40.909-1.126-4.403-1.126-8.858-1.126-14.336 0-42.035 12.646-80.691 33.331-113.818 4.608-6.656 9.216-13.261 15.002-19.917 5.734-6.605 11.469-13.261 18.381-19.866 41.421-39.782 98.97-64.102 162.253-64.102 125.44 0 227.84 98.355 229.018 217.702 0 15.462-1.178 30.925-4.608 45.261-6.912 33.178-21.862 62.976-42.598 88.422zM845.773 230.349h-71.373v-68.506c0-3.328-1.126-5.53-2.304-8.858-3.43-6.605-10.342-11.008-18.381-11.008-1.178 0-1.178 0-2.304 0-10.342 1.075-18.432 9.933-18.432 19.866v68.506h-71.322c-11.52 0-20.736 8.858-20.736 19.917 0 3.277 1.178 5.478 2.304 8.806 3.482 6.656 10.342 11.059 18.432 11.059h71.322v68.506c0 0 0 1.126 0 2.202 1.178 7.731 6.912 14.387 13.824 16.589 3.43 1.126 5.734 1.126 8.038 1.126 11.52 0 20.736-8.858 20.736-19.917v-68.506h71.322c8.090 0 15.002-4.403 17.254-11.059 1.178-2.202 2.304-5.53 2.304-8.806 0-11.059-9.165-19.917-20.685-19.917z" />
<glyph unicode="&#xe914;" glyph-name="Drag-n-Drop" d="M849.869 192.102h-32.973c0.768 7.68 1.331 15.411 1.331 23.296 0 9.882-0.768 19.61-1.946 29.235h33.587c62.72 0 115.712 52.634 115.712 114.944 0 63.181-56.883 114.586-126.976 114.944-0.819-0.051-1.587-0.051-2.406-0.051h-26.266l-2.714 23.501c-13.722 116.685-122.522 204.698-253.082 204.698-118.682 0-220.518-72.55-247.706-176.384l-7.782-29.85-31.59 11.52c-18.227 6.656-37.427 10.086-56.986 10.086-83.763 0-151.91-61.338-151.91-136.704 0-75.213 66.97-135.27 152.474-136.704h26.010c-1.229-9.574-1.946-19.302-1.946-29.235 0-7.834 0.563-15.565 1.331-23.245h-25.958c-118.17 1.946-210.278 85.043-210.278 189.184 0 104.294 94.362 189.184 210.278 189.184 16.333 0 32.461-1.69 48.23-5.069 42.957 112.998 160.512 189.747 295.782 189.747 152.166 0 280.218-97.178 307.558-229.478 91.392-10.598 162.253-81.050 162.253-166.144 0-90.778-79.667-167.475-174.029-167.475zM447.949 506.368h128.051v-155.955h111.514l-89.395-82.074-86.17-76.288-89.907 79.462-85.658 78.899h111.565v155.955z" />
<glyph unicode="&#xe915;" glyph-name="Subscriber-Management-Responsive" d="M896.154 633.293h-127.898l-347.75-344.32 63.846-63.437-251.904-250.368c-52.48-52.224-137.472-52.224-189.952 0-52.531 52.173-52.531 136.602 0 188.826l251.853 250.368 62.566-61.952 347.546 344.32v127.078l255.693 126.874 63.846-63.437-127.846-253.952zM393.421 608.256c-10.906 10.803-28.621 10.803-39.475 0-10.906-10.803-10.906-28.416 0-39.219l69.99-69.427-48.435-47.923-51.251 50.893c-20.275 20.173-48.896 29.952-77.466 26.112-64.922-8.499-132.813 12.083-182.733 61.542-50.842 50.483-71.322 119.654-61.491 185.242 1.69 10.394 14.541 14.592 21.965 7.168l66.202-65.536c31.181-31.181 81.971-31.181 113.357 0l40.55 40.294c31.386 30.976 31.386 81.51 0 112.691l-65.946 65.536c-7.475 7.424-3.226 20.378 7.219 21.862 65.997 9.779 135.578-10.598 186.368-61.082 49.766-49.664 70.451-117.146 61.901-181.658-3.84-28.211 5.99-56.832 26.266-77.005l51.456-51.149-48.486-47.923-69.99 69.581zM856.832 69.12c10.906-10.803 28.621-10.803 39.526 0 10.854 10.854 10.854 28.467 0 39.27l-287.744 286.003 48.435 47.974 296.294-294.502c37.376-37.325 37.376-97.792-0.205-135.168-37.581-37.325-98.406-37.53-135.987-0.205l-296.499 294.707 48.435 47.923 287.744-286.003z" />
<glyph unicode="&#xe916;" glyph-name="Suppression-List-Responsive" d="M874.138 85.862c-96.87-96.614-225.229-149.862-362.138-149.862s-265.472 53.248-362.138 149.862c-96.666 96.87-149.862 225.229-149.862 362.138s53.197 265.472 149.862 362.138c96.87 96.666 225.485 149.862 362.138 149.862s265.267-53.197 362.138-149.862c96.614-96.87 149.862-225.485 149.862-362.138s-53.248-265.267-149.862-362.138zM512 902.502c-250.573 0-454.502-203.93-454.502-454.502s203.93-454.502 454.502-454.502c250.573 0 454.502 203.93 454.502 454.502s-203.93 454.502-454.502 454.502zM536.269 216.576c-5.325-8.090-14.029-13.21-23.859-13.21-9.779 0-18.944 4.915-24.269 13.21l-208.384 324.864c-3.021 4.71-4.506 10.24-4.506 15.565 0 4.659 1.28 9.574 3.635 13.824 4.915 9.165 14.694 14.899 25.139 14.899h416.614c10.445 0 20.019-5.734 25.088-14.899 5.12-9.37 4.71-20.429-1.024-29.389l-208.435-324.864zM356.147 528.282l155.853-242.944 155.853 242.944h-311.706z" />
<glyph unicode="&#xe917;" glyph-name="Autoresponder" d="M1023.898 607.078c0 3.891-1.587 7.68-4.403 10.445l-188.467 186.010c-4.301 4.25-10.752 5.53-16.333 3.226-5.632-2.304-9.267-7.731-9.267-13.67v-58.214c-0.614-0.154-1.229-0.307-1.843-0.41-18.893-3.789-44.595-10.035-74.752-18.227-4.813-1.434-9.728-2.867-14.746-4.301-10.65-3.072-21.76-6.298-33.024-10.138-15.821-5.12-34.253-11.213-52.429-18.227-18.586-6.605-37.274-14.49-55.040-22.067-1.28-0.512-2.509-1.075-3.738-1.638h-555.008c-1.843 0-3.584-0.41-5.274-1.024-0.512-0.205-0.973-0.461-1.485-0.717-1.075-0.563-2.048-1.229-3.021-1.997-0.41-0.41-0.819-0.768-1.229-1.178-0.87-0.973-1.587-2.048-2.202-3.226-0.205-0.41-0.461-0.717-0.666-1.178-0.051-0.102-0.102-0.154-0.154-0.256-0.614-1.587-0.87-3.226-0.87-4.915-0.051-0.102-0.102-0.154-0.102-0.307v-591.872c0-0.102 0.051-0.205 0.102-0.307 0-1.638 0.256-3.328 0.87-4.915 0.051-0.102 0.102-0.154 0.154-0.256 0.205-0.461 0.461-0.768 0.666-1.178 0.614-1.178 1.331-2.253 2.202-3.226 0.41-0.41 0.819-0.768 1.229-1.126 0.922-0.819 1.946-1.485 3.072-2.048 0.461-0.256 0.922-0.512 1.434-0.717 1.69-0.614 3.43-1.024 5.274-1.024h844.083c1.894 0 3.635 0.41 5.274 1.024 0.563 0.205 0.973 0.461 1.485 0.717 1.126 0.563 2.099 1.229 3.021 1.997 0.461 0.41 0.87 0.768 1.28 1.178 0.87 0.973 1.587 2.048 2.15 3.226 0.256 0.41 0.512 0.717 0.666 1.178 0.051 0.102 0.154 0.154 0.205 0.256 0.614 1.587 0.819 3.277 0.87 4.915 0 0.102 0.051 0.205 0.051 0.307v399.77l145.562 143.616c2.816 2.765 4.403 6.554 4.403 10.496zM507.904 630.272c-15.309-8.141-30.157-16.282-44.339-24.474-5.376-3.533-10.752-6.861-16.026-10.189-11.11-6.963-22.579-14.131-33.536-22.272-4.966-3.84-9.83-7.424-14.694-11.008-10.138-7.475-19.763-14.541-28.774-22.835-4.096-3.789-8.141-7.373-12.083-10.906-8.448-7.475-16.384-14.541-23.859-22.426l-26.624-29.645c-5.837-6.554-10.394-13.21-14.029-18.586-1.69-2.458-3.277-4.762-5.12-7.27l-9.114-13.158-224.768 192.768h452.966zM339.866 436.634l33.587 15.872c7.526 3.328 16.077 6.298 25.139 9.37 5.018 1.741 10.086 3.482 15.206 5.376 8.499 3.123 18.125 5.427 28.262 7.885 5.786 1.434 11.571 2.816 16.947 4.301 9.882 2.458 20.326 4.198 31.437 6.042 6.093 1.024 12.237 2.048 17.408 3.021 16.435 2.099 33.946 3.994 51.251 5.581 6.451 0.205 12.8 0.614 19.098 0.973 9.933 0.563 19.763 1.126 29.696 1.126h3.533l17.357 0.051c11.008 0 21.811-0.102 32.922-0.717l-224.819-192.819-131.533 112.794 10.65 6.758c2.611 1.536 5.325 3.277 8.192 5.171 4.864 3.174 9.882 6.451 15.667 9.216zM29.85 612.608l307.2-263.475-307.2-263.475v526.95zM54.938 67.994l304.947 261.53 67.174-57.6c2.816-2.458 6.349-3.635 9.83-3.635 3.533 0 7.014 1.178 9.83 3.635l67.174 57.6 304.947-261.53h-763.904zM843.981 85.658l-307.2 263.475 167.68 143.821c1.434-0.102 2.816-0.154 4.25-0.307 9.421-0.614 18.586-1.638 27.29-2.662 4.915-0.563 9.677-1.075 13.773-1.485 22.784-3.021 41.779-5.939 55.654-8.602v-58.88c0-5.939 3.635-11.366 9.267-13.67 1.843-0.717 3.789-1.126 5.734-1.126 3.891 0 7.731 1.536 10.598 4.352l12.954 12.8v-337.715zM835.43 456.755v35.226c0 6.912-4.864 12.902-11.674 14.438-2.304 0.512-4.813 1.024-7.578 1.536-14.49 2.97-36.096 6.4-62.925 9.933-4.454 0.41-9.062 0.973-13.824 1.485-9.165 1.075-18.79 2.15-28.518 2.816-16.077 1.28-31.898 2.458-47.77 2.867-11.264 0.614-22.682 0.768-34.355 0.768l-20.89-0.051c-10.496 0-20.941-0.563-31.488-1.178-6.093-0.358-12.186-0.717-19.2-1.024-18.534-1.638-36.403-3.584-54.118-5.837-5.837-1.126-11.725-2.099-17.613-3.072-11.213-1.843-22.784-3.789-34.202-6.605-5.427-1.536-10.906-2.816-16.333-4.147-10.598-2.56-21.504-5.222-31.642-8.96-4.864-1.792-9.728-3.43-14.541-5.12-9.267-3.174-18.893-6.451-27.955-10.496l-17.818-8.397 13.773 15.258c6.349 6.707 13.824 13.363 21.76 20.429 4.045 3.584 8.243 7.322 12.493 11.264 7.782 7.168 16.742 13.773 26.214 20.736 5.018 3.686 10.138 7.424 15.053 11.213 9.728 7.27 20.224 13.824 31.334 20.787 5.427 3.379 10.906 6.861 15.77 10.035 16.128 9.318 33.69 18.944 51.558 28.314 5.99 2.816 11.981 5.734 17.971 8.653 11.878 5.734 24.115 11.725 36.25 16.589 17.664 7.475 35.891 15.206 54.016 21.658 17.818 6.861 35.789 12.8 51.405 17.869 11.008 3.738 21.709 6.81 31.949 9.779 5.12 1.485 10.189 2.918 14.643 4.301 29.082 7.885 54.118 13.978 72.602 17.664 4.71 1.075 9.216 1.894 13.261 2.611 7.168 1.229 12.39 7.373 12.39 14.592v34.662l152.269-150.272-152.269-150.323z" />
<glyph unicode="&#xe918;" glyph-name="Date" d="M0 886.835h176.538v-146.278h141.261v146.278h388.403v-146.278h141.261v146.278h176.538v-182.835h-1024v182.835zM741.53 960h70.605v-182.835h-70.605v182.835zM211.866 960h70.605v-182.835h-70.605v182.835zM1024 667.443l-0.051-731.443h-1023.949v731.443h1024zM35.328-27.443h953.344v658.278h-953.344v-658.278zM776.806 155.443h105.933v-109.722h-105.933v109.722zM776.806 338.278h105.933v-109.722h-105.933v109.722zM776.806 521.165h105.933v-109.722h-105.933v109.722zM564.941 155.443h105.933v-109.722h-105.933v109.722zM564.941 338.278h105.933v-109.722h-105.933v109.722zM564.941 521.165h105.933v-109.722h-105.933v109.722zM353.126 155.443h105.882v-109.722h-105.882v109.722zM353.126 338.278h105.882v-109.722h-105.882v109.722zM353.126 521.165h105.882v-109.722h-105.882v109.722zM141.261 155.443h105.933v-109.722h-105.933v109.722zM141.261 338.278h105.933v-109.722h-105.933v109.722z" />
<glyph unicode="&#xe919;" glyph-name="Exclude" d="M512 960c-283.904 0-512-228.096-512-512s228.096-512 512-512c283.904 0 512 228.096 512 512s-228.096 512-512 512zM586.496 438.682l174.541-174.541c4.659-4.659 6.963-11.622 6.963-16.282s-2.304-11.622-6.963-16.282l-32.614-32.614c-4.659-4.608-11.622-6.963-16.282-6.963-6.963 0-11.622 2.355-16.282 6.963l-174.541 174.592c-4.659 4.608-11.674 4.608-16.282 0l-174.592-174.592c-4.608-4.608-11.622-6.963-16.282-6.963-6.963 0-11.622 2.355-16.282 6.963l-32.563 32.614c-4.659 4.659-7.014 11.622-7.014 16.282s2.355 11.622 7.014 16.282l174.541 174.541c4.659 4.659 4.659 11.674 0 16.282l-174.541 174.592c-4.659 4.608-7.014 11.622-7.014 16.282s2.355 11.622 7.014 16.282l32.563 32.563c4.659 4.659 11.622 7.014 16.282 7.014s11.674-2.355 16.282-7.014l174.592-174.541c4.608-4.659 11.622-4.659 16.282 0l174.541 174.541c4.659 4.659 11.622 7.014 16.282 7.014 6.963 0 11.622-2.355 16.282-7.014l32.614-32.563c4.659-4.659 6.963-11.622 6.963-16.282s-2.304-11.674-6.963-16.282l-174.541-174.592c-4.659-2.304-4.659-11.622 0-16.282z" />
<glyph unicode="&#xe920;" glyph-name="Include" d="M512 960c-281.6 0-512-230.4-512-512s230.4-512 512-512c281.6 0 512 230.4 512 512s-230.4 512-512 512zM768 396.8h-204.8v-204.8h-102.4v204.8h-204.8v102.4h204.8v204.8h102.4v-204.8h204.8v-102.4z" />
<glyph unicode="&#xe921;" glyph-name="Newsletter" d="M1023.846 789.35c0 0.102-0.051 0.205-0.051 0.358-0.051 1.894-0.358 3.789-1.075 5.581-0.051 0.154-0.102 0.256-0.154 0.358-0.205 0.512-0.563 0.87-0.819 1.331-0.666 1.382-1.536 2.611-2.56 3.738-0.461 0.461-0.922 0.87-1.434 1.331-1.126 0.922-2.253 1.69-3.584 2.304-0.563 0.307-1.075 0.614-1.69 0.819-1.946 0.717-3.994 1.229-6.195 1.229h-988.877c-2.15 0-4.198-0.512-6.144-1.229-0.614-0.205-1.178-0.512-1.741-0.819-1.28-0.614-2.458-1.382-3.533-2.304-0.563-0.461-1.024-0.87-1.485-1.331-1.024-1.126-1.843-2.355-2.56-3.738-0.256-0.461-0.563-0.819-0.768-1.331-0.051-0.102-0.154-0.205-0.205-0.358-0.717-1.792-1.024-3.686-1.075-5.581 0-0.154-0.051-0.256-0.051-0.358v-682.701c0-0.102 0.051-0.205 0.051-0.358 0.051-1.894 0.358-3.789 1.075-5.581 0.051-0.154 0.154-0.256 0.205-0.358 0.205-0.512 0.512-0.87 0.768-1.331 0.717-1.382 1.536-2.611 2.56-3.738 0.461-0.461 0.922-0.87 1.434-1.331 1.126-0.922 2.304-1.69 3.584-2.304 0.563-0.307 1.126-0.614 1.69-0.819 1.997-0.717 4.045-1.229 6.195-1.229h988.877c2.202 0 4.25 0.512 6.195 1.229 0.614 0.205 1.126 0.512 1.69 0.819 1.331 0.614 2.458 1.382 3.584 2.304 0.512 0.461 0.973 0.87 1.434 1.331 1.024 1.126 1.894 2.355 2.56 3.738 0.256 0.461 0.614 0.819 0.819 1.331 0.051 0.102 0.102 0.205 0.154 0.358 0.717 1.792 1.024 3.686 1.075 5.581 0 0.154 0.051 0.256 0.051 0.358v682.701zM959.283 772.25l-447.437-377.805-447.437 377.805h894.874zM988.723 751.872v-607.744l-359.885 303.872 359.885 303.872zM394.854 448l-359.885-303.872v607.744l359.885-303.872zM64.41 123.75l357.222 301.619 78.694-66.458c3.328-2.765 7.424-4.147 11.52-4.147s8.243 1.382 11.52 4.147l78.694 66.458 357.222-301.619h-894.874z" />
<glyph unicode="&#xe922;" glyph-name="Report" d="M1021.85 550.4v-68.25h-475.853v477.85h67.994c129.997-1.587 242.381-53.914 333.875-146.842 91.546-92.979 73.984-131.994 73.984-262.758zM885.914 755.2c-77.517 78.694-162.714 129.587-271.923 136.55v-341.35h339.917c-5.53 110.029 9.677 125.952-67.994 204.8zM478.003 413.85h543.846c0-272.179-256.922-477.85-528.026-477.85-122.061 0-237.67 44.595-327.987 126.003l-0.358-0.358-27.392-57.395-5.274 89.549 0.41 0.41c-84.685 91.546-131.072 209.766-131.072 335.462-25.702 282.522 204.749 530.33 475.853 530.33v-546.15zM410.010 413.85v477.901c-207.155-78.746-339.917-236.749-339.917-477.901 0-113.408 19.405-204.288 95.488-287.181l244.429 218.931v68.25zM274.074 72.55c81.613-72.806 110.49-102.195 219.75-90.624 221.184 23.45 446.003 217.037 460.083 363.674h-407.91l-271.923-273.050z" />
<glyph unicode="&#xe923;" glyph-name="Step-Tick" d="M970.598 806.4l-602.573-608.87-314.624 317.952-53.402-53.965 368.026-371.917 655.974 662.835-53.402 53.965z" />
<glyph unicode="&#xe924;" glyph-name="Time" d="M512-64c-281.805 0-512 230.195-512 512s230.195 512 512 512c281.805 0 512-228.045 512-509.85s-230.195-514.15-512-514.15zM512 897.638c-247.398 0-447.437-200.090-447.437-447.488s200.038-447.437 447.437-447.437c247.398 0 447.437 200.038 447.437 447.437 0 245.248-200.038 447.488-447.437 447.488zM888.474 420.045c-16.64 0-30.106 13.466-30.106 30.106s13.466 30.106 30.106 30.106c16.64 0 30.106-13.466 30.106-30.106s-13.466-30.106-30.106-30.106zM524.902 394.24c-6.451-6.451-15.053-10.752-23.654-10.803-8.602 0-17.203 2.202-23.654 8.653l-103.27 107.52c-12.902 12.954-12.902 32.307 0 45.21s32.256 12.902 45.158 0l81.766-81.766 189.286 189.338c12.902 12.902 32.307 12.902 45.21 0s12.902-32.307 0-45.21l-210.842-212.941zM512 796.518c-16.64 0-30.106 13.466-30.106 30.106s13.466 30.106 30.106 30.106c16.64 0 30.106-13.466 30.106-30.106s-13.466-30.106-30.106-30.106zM512 101.632c16.64 0 30.106-13.466 30.106-30.106s-13.466-30.106-30.106-30.106c-16.64 0-30.106 13.466-30.106 30.106s13.466 30.106 30.106 30.106zM135.526 420.045c-16.64 0-30.106 13.466-30.106 30.106s13.466 30.106 30.106 30.106c16.64 0 30.106-13.466 30.106-30.106s-13.466-30.106-30.106-30.106z" />
<glyph unicode="&#xe925;" glyph-name="Use-Me" d="M555.981 624.64c7.68 22.016 11.571 45.056 11.571 68.608 0 112.998-90.624 204.902-202.086 204.902-111.411 0-202.086-91.904-202.086-204.902 0-85.146 52.838-162.304 131.43-192.102l-21.299-57.907c-49.715 18.79-92.262 52.070-123.034 96.205-31.437 45.158-48.077 98.304-48.077 153.805 0 147.098 118.016 266.752 263.066 266.752s263.066-119.654 263.066-266.752c0-30.618-5.069-60.621-15.104-89.293l-57.446 20.685zM303.155 613.427l-37.939-48.384c-38.912 31.334-61.184 78.029-61.184 128.205 0 90.266 72.397 163.686 161.434 163.686s161.434-73.421 161.434-163.686c0-1.229 0-2.458-0.051-3.686l-0.051-0.922-60.928 1.69 0.051 1.331c0 0.512 0 1.024 0 1.587 0 56.166-45.056 101.888-100.454 101.888s-100.454-45.722-100.454-101.888c0-31.181 13.875-60.262 38.144-79.821zM676.25 261.274l109.517-238.182-184.218-87.091-109.517 238.182-157.030-191.181v776.55l586.598-499.149-245.35 0.87zM394.957 163.533l111.718 125.082 124.365-270.438 73.677 34.816-124.365 270.49 173.005-0.666-357.376 304.128-1.024-463.411z" />
<glyph unicode="&#xe926;" glyph-name="Zoom-in" d="M1024-8.755l-47.667-55.245-355.379 310.682c-65.894-57.754-151.91-92.723-245.914-92.723-206.797 0-375.040 169.318-375.040 377.395 0 208.128 168.243 377.446 375.040 377.446s375.040-169.318 375.040-377.446c0-87.194-29.542-167.526-79.104-231.526l353.024-308.582zM708.403 531.354c0 184.986-149.555 335.462-333.363 335.462s-333.363-150.477-333.363-335.462c0-184.934 149.555-335.411 333.363-335.411s333.363 150.477 333.363 335.411zM397.824 382.259h-45.568v126.157h-125.235v45.926h125.235v126.157h45.568v-126.157h125.235v-45.926h-125.235v-126.157z" />
<glyph unicode="&#xe927;" glyph-name="Media" d="M0-64v1024h1024v-1024h-1024zM633.907-15.258l-310.323 264.397c11.52-0.973-177.306-264.397-177.306-264.397h487.629zM975.258 911.258h-926.515v-926.515l251.29 325.786c5.274 5.888 12.698 9.37 20.582 9.677 7.68 0.41 15.514-2.509 21.248-7.834l76.083-71.424 230.502 227.891c11.059 10.906 28.672 11.264 40.141 0.87l286.669-241.152v682.701zM975.258 33.536v97.536l-305.306 276.685-209.306-206.899 270.797-216.115c-22.17 0.358-38.349 0.256-51.251 0h295.066v48.794zM330.598 439.194c-77.414 0-140.442 63.027-140.442 140.442 0 77.466 63.027 140.493 140.442 140.493 77.466 0 140.442-63.027 140.442-140.493 0-77.414-63.027-140.442-140.442-140.442zM330.598 661.555c-45.158 0-81.92-36.71-81.92-81.92 0-45.107 36.762-81.869 81.92-81.869s81.92 36.762 81.92 81.869c0 45.21-36.762 81.92-81.92 81.92z" />
<glyph unicode="&#xe928;" glyph-name="Overview" d="M1010.637-50.381c-9.114-9.062-20.992-13.619-32.922-13.619s-23.859 4.557-32.922 13.619l-317.44 317.389c-65.997-51.866-149.146-82.79-239.36-82.79-213.965 0-387.994 174.029-387.994 387.891s174.029 387.891 387.994 387.891c213.965 0 387.994-174.029 387.994-387.891 0-90.214-30.976-173.312-82.79-239.258l317.44-317.389c18.176-18.176 18.176-47.667 0-65.843zM387.994 866.918c-162.611 0-294.861-132.25-294.861-294.81s132.25-294.81 294.861-294.81c162.611 0 294.861 132.25 294.861 294.81s-132.25 294.81-294.861 294.81zM460.8 704h51.2v-256h-51.2v256zM358.4 652.8h51.2v-204.8h-51.2v204.8zM256 601.6h51.2v-153.6h-51.2v153.6z" />
<glyph unicode="&#xe929;" glyph-name="Scheduled" d="M960-64h-896c-35.328 0-64 28.672-64 64v799.949c0 35.328 28.672 64 64 64h256v80.026c0 8.858 7.168 16.026 16.026 16.026 8.806 0 15.974-7.168 15.974-16.026v-80.026h336.026v80.026c0 8.858 7.117 16.026 15.974 16.026s16.026-7.168 16.026-16.026v-80.026h239.974c35.328 0 64-28.672 64-64v-799.949c0-35.328-28.672-64-64-64zM992 799.949c0 17.613-14.336 32-32 32h-239.974v-47.974c0-8.806-7.168-15.974-16.026-15.974s-15.974 7.168-15.974 15.974v47.974h-336.026v-47.974c0-8.806-7.168-15.974-15.974-15.974-8.858 0-16.026 7.168-16.026 15.974v47.974h-256c-17.664 0-32-14.387-32-32v-111.974h960v111.974zM992 655.974l-960 0.051v-656.026c0-17.664 14.336-32 32-32h896c17.664 0 32 14.336 32 32v655.974zM736 192h128v-128h-128v128zM768 96h64v64h-64v-64zM736 384h128v-128h-128v128zM768 288h64v64h-64v-64zM736 576h128v-128h-128v128zM768 480h64v64h-64v-64zM448 192h128v-128h-128v128zM480 96h64v64h-64v-64zM448 384h128v-128h-128v128zM480 288h64v64h-64v-64zM448 576h128v-128h-128v128zM480 480h64v64h-64v-64zM160 192h128v-128h-128v128zM192 96h64v64h-64v-64zM160 384h128v-128h-128v128zM192 288h64v64h-64v-64zM160 576h128v-128h-128v128zM192 480h64v64h-64v-64z" />
<glyph unicode="&#xe930;" glyph-name="User-Settings" d="M776.55 126.976v12.544c-0.205 31.898-22.989 58.573-53.094 64.256 0 0.205-0.205 0.614-0.41 1.024 17.152 25.6 14.643 60.621-7.936 83.098l-17.562 17.613c-12.083 12.39-28.621 19.098-45.978 19.098-13.158 0-25.907-3.994-36.557-11.315-0.205 0.205-0.614 0.205-1.024 0.41-5.632 30.208-32.205 53.094-63.949 53.094h-24.883c-31.539 0-58.112-22.886-63.949-52.89-0.41-0.205-1.024-0.41-1.434-0.614-10.701 7.322-23.245 11.11-36.403 11.11-17.562 0-33.843-6.912-46.182-19.302l-17.562-17.613c-12.288-12.39-18.995-28.979-18.995-46.387 0-13.005 3.738-25.395 10.854-36.096-0.205-0.614-0.614-1.229-0.819-1.894-29.696-6.093-52.019-32.512-52.019-64.205v-12.186h-145.050v108.698c0 22.886 10.035 44.698 27.802 59.392 97.792 80.794 203.315 134.298 224.87 144.794 2.509 1.075 3.942 3.584 3.942 6.298v152.986c-18.995 12.8-31.744 34.816-31.744 59.597v158.618c0 78.899 63.744 142.899 142.285 142.899h33.894c78.541 0 142.285-64 142.285-142.899v-158.413c0-24.986-12.544-46.797-31.744-59.597v-153.19c0-2.714 1.434-5.018 3.942-6.298 21.555-10.496 127.078-64 224.87-144.794 17.562-14.49 27.802-36.301 27.597-59.187v-108.646h-145.050zM363.213 155.494h23.808c3.994 20.326 11.93 40.090 24.064 57.702l-16.947 16.998c-6.298 6.298-6.298 16.589 0 22.886l17.562 17.613c6.246 6.298 16.486 6.298 22.784 0l17.101-17.203c17.562 11.93 37.018 19.917 57.293 23.706v24.32c0 9.062 7.322 16.179 16.077 16.179h24.883c8.96 0 16.077-7.373 16.077-16.179v-24.525c20.070-3.789 39.475-11.776 57.037-23.706l17.357 17.408c6.246 6.298 16.486 6.298 22.784 0l17.562-17.613c6.246-6.298 6.246-16.589 0-22.886l-17.357-17.408c12.134-17.664 20.070-37.171 23.808-57.293h24.474c8.755 0 16.077-7.117 15.667-15.718v-24.986c0-9.011-7.322-16.179-16.077-16.179h-24.269c-3.533-20.326-11.469-40.090-23.398-57.702l17.152-17.203c6.246-6.298 6.246-16.589 0-22.886l-17.562-17.613c-6.298-6.298-16.538-6.298-22.784 0l-16.947 16.998c-17.51-12.186-37.171-20.122-57.446-24.115v-23.91c0-9.062-7.322-16.179-16.077-16.179h-24.883c-9.011 0-16.077 7.322-16.077 16.179v23.706c-20.48 3.738-40.141 11.725-57.907 23.91l-16.486-16.794c-6.298-6.298-16.538-6.298-22.784 0l-17.562 17.613c-6.298 6.298-6.298 16.589 0 22.886l16.486 16.794c-12.083 17.613-20.019 37.53-23.808 57.907h-23.603c-9.011 0-16.077 7.322-16.077 16.179v24.934c0 9.062 7.27 16.179 16.077 16.179zM479.181 67.789c32.41-32.307 84.838-32.307 117.043 0.205 32.358 32.512 32.154 85.197-0.205 117.504-32.41 32.307-84.838 32.307-117.043-0.205s-32.205-85.197 0.205-117.504z" />
<glyph unicode="&#xe931;" glyph-name="Template" d="M51.2-64v1024h870.4v-1024h-870.4zM873.267 911.258h-773.734v-926.515h773.734v926.515zM768 704h-563.2v51.2h563.2v-51.2zM768 499.2h-563.2v51.2h563.2v-51.2zM512 89.6h-307.2v307.2h307.2v-307.2zM768 294.4h-204.8v51.2h204.8v-51.2zM768 89.6h-204.8v51.2h204.8v-51.2z" />
<glyph unicode="&#xe932;" glyph-name="Technology" d="M783.155-64h-491.11c-48.077 0-87.245 38.758-87.245 86.374v851.251c0 47.616 39.168 86.374 87.245 86.374h491.11c48.077 0 87.245-38.758 87.245-86.374v-851.251c0-47.616-39.168-86.374-87.245-86.374zM555.11 32.87c0 9.523-7.834 17.306-17.51 17.306s-17.51-7.782-17.51-17.306c0-9.574 7.834-17.357 17.51-17.357s17.51 7.782 17.51 17.357zM819.2 857.6c0 28.518-22.426 51.2-51.2 51.2h-460.8c-28.774 0-51.2-22.682-51.2-51.2v-51.2h563.2v51.2zM819.2 755.2h-563.2v-614.4h563.2v614.4zM819.2 89.6h-563.2v-51.2c0-28.518 22.426-51.2 51.2-51.2h206.592c-16.845 8.653-28.723 25.6-28.723 45.67 0 28.672 23.552 52.019 52.531 52.019s52.531-23.347 52.531-52.019c0-20.070-11.878-37.018-28.723-45.67h206.592c28.774 0 51.2 22.682 51.2 51.2v51.2zM318.976 514.611h21.965c2.816 8.192 6.144 16.179 9.984 23.91l-15.514 15.36c-5.786 5.734-6.758 14.643-2.406 21.504 19.149 30.157 45.414 56.166 75.878 75.162 6.963 4.301 15.974 3.277 21.76-2.406l15.514-15.36c7.834 3.789 15.872 7.117 24.115 9.882v21.76c0 8.090 5.683 15.104 13.619 16.896 34.97 7.885 72.448 7.885 107.418 0 7.936-1.792 13.619-8.806 13.619-16.896v-21.76c8.243-2.765 16.282-6.093 24.115-9.933l15.565 15.411c5.786 5.683 14.797 6.707 21.709 2.406 30.464-19.046 56.73-45.005 75.878-75.162 4.403-6.861 3.379-15.77-2.406-21.504l-15.514-15.36c3.84-7.731 7.168-15.718 9.984-23.91h21.965c8.192 0 15.258-5.581 17.101-13.466 3.942-17.306 5.99-35.174 5.99-53.146s-2.048-35.84-5.99-53.146c-1.843-7.885-8.909-13.466-17.101-13.466h-21.965c-2.816-8.141-6.144-16.128-9.984-23.91l15.514-15.36c5.786-5.734 6.81-14.643 2.406-21.504-19.149-30.106-45.414-56.115-75.878-75.11-6.912-4.352-15.923-3.328-21.709 2.406l-15.565 15.36c-7.834-3.84-15.872-7.117-24.115-9.933v-21.709c0-8.090-5.683-15.104-13.619-16.947-17.51-3.942-35.533-5.939-53.709-5.939s-36.25 1.997-53.709 5.939c-7.936 1.843-13.619 8.858-13.619 16.947v21.709c-8.243 2.816-16.282 6.093-24.115 9.933l-15.514-15.36c-5.786-5.734-14.797-6.758-21.76-2.406-30.464 18.995-56.73 44.954-75.878 75.11-4.352 6.861-3.379 15.77 2.406 21.504l15.514 15.36c-3.84 7.731-7.168 15.77-9.984 23.91h-21.965c-8.192 0-15.258 5.581-17.101 13.466-3.994 17.306-5.99 35.174-5.99 53.146s1.997 35.891 5.99 53.146c1.843 7.885 8.909 13.466 17.101 13.466zM333.414 416.051h20.48c7.885 0 14.797-5.222 16.896-12.8 3.84-14.080 9.523-27.597 16.896-40.294 3.942-6.81 2.765-15.411-2.816-20.941l-14.438-14.285c12.698-17.254 28.211-32.614 45.67-45.21l14.438 14.336c5.581 5.53 14.234 6.656 21.094 2.765 12.851-7.322 26.522-12.902 40.755-16.742 7.629-2.048 12.902-8.909 12.902-16.742v-20.224c21.248-3.277 43.366-3.277 64.614 0v20.224c0 7.834 5.274 14.694 12.902 16.742 14.234 3.84 27.904 9.472 40.755 16.742 6.861 3.891 15.514 2.765 21.094-2.765l14.49-14.336c17.408 12.595 32.922 27.955 45.619 45.21l-14.438 14.285c-5.581 5.581-6.758 14.131-2.816 20.941 7.373 12.698 13.056 26.266 16.896 40.294 2.048 7.578 9.011 12.8 16.896 12.8h20.48c1.638 10.496 2.509 21.197 2.509 31.949s-0.87 21.453-2.509 31.949h-20.48c-7.885 0-14.848 5.274-16.896 12.8-3.84 14.080-9.523 27.648-16.896 40.346-3.942 6.758-2.765 15.36 2.816 20.89l14.438 14.285c-12.698 17.254-28.211 32.614-45.619 45.21l-14.49-14.336c-5.581-5.53-14.234-6.656-21.094-2.765-12.851 7.322-26.522 12.954-40.755 16.742-7.629 2.048-12.902 8.909-12.902 16.742v20.224c-21.248 3.328-43.366 3.328-64.614 0v-20.224c0-7.834-5.274-14.694-12.902-16.742-14.234-3.789-27.904-9.421-40.755-16.742-6.861-3.891-15.514-2.765-21.094 2.816l-14.438 14.285c-17.459-12.595-32.973-27.955-45.67-45.21l14.438-14.285c5.581-5.53 6.758-14.131 2.816-20.89-7.373-12.698-13.056-26.266-16.896-40.346-2.099-7.526-9.011-12.8-16.896-12.8h-20.48c-1.638-10.496-2.509-21.197-2.509-31.949s0.87-21.453 2.509-31.949zM537.6 579.789c73.421 0 133.12-59.136 133.12-131.789s-59.699-131.789-133.12-131.789c-73.421 0-133.12 59.136-133.12 131.789s59.699 131.789 133.12 131.789zM537.6 350.925c54.067 0 98.099 43.52 98.099 97.075s-44.032 97.126-98.099 97.126c-54.118 0-98.099-43.571-98.099-97.126s43.981-97.075 98.099-97.075zM537.6 508.774c33.843 0 61.389-27.238 61.389-60.774 0-33.485-27.546-60.774-61.389-60.774s-61.389 27.29-61.389 60.774c0 33.536 27.546 60.774 61.389 60.774zM537.6 421.888c14.541 0 26.368 11.725 26.368 26.112s-11.827 26.112-26.368 26.112c-14.541 0-26.368-11.725-26.368-26.112s11.827-26.112 26.368-26.112zM462.848 881.408h149.504c9.677 0 17.51-7.731 17.51-17.306s-7.834-17.357-17.51-17.357h-149.504c-9.677 0-17.51 7.782-17.51 17.357s7.834 17.306 17.51 17.306z" />
<glyph unicode="&#xe933;" glyph-name="Sent-Mail" d="M970.291 928.051l-366.438-978.432c-3.021-8.090-10.803-13.517-19.354-13.517l-1.741 0.051c-9.165 0.819-16.742 7.731-18.534 16.845l-86.835 451.584-409.651 80.026c-8.755 1.741-15.411 8.909-16.589 17.766-1.126 8.909 3.43 17.562 11.469 21.504l880.691 433.971c7.526 3.738 16.896 2.304 22.989-3.328 6.195-5.683 8.397-14.848 5.376-22.784l-1.28-3.379 0.102-0.102-0.205-0.205zM136.346 513.741l351.078-68.608 379.238 428.442-730.317-359.834zM517.222 416.205l73.677-383.078 302.797 808.397-376.474-425.318z" />
<glyph unicode="&#xe934;" glyph-name="Mail-Settings" d="M1009.306 208.742l-26.317-3.84c-11.827-1.69-21.402-8.653-26.163-18.995-4.762-10.394-3.686-21.658 3.021-31.027l14.336-19.968c4.659-6.502 3.789-15.206-2.099-20.787l-33.997-32.051c-6.093-5.734-15.616-6.4-22.528-1.638l-15.104 10.445c-9.728 6.758-22.118 8.141-33.331 3.789-11.11-4.352-18.893-13.67-20.685-24.934l-2.867-17.459c-1.28-7.987-8.602-13.875-17.152-13.875h-48.077c-8.294 0-15.462 5.581-17.050 13.312l-4.813 23.654c-2.253 11.11-9.933 19.814-21.094 23.962-11.162 4.096-23.040 2.662-32.717-4.045l-21.453-14.848c-6.912-4.762-16.486-4.096-22.528 1.638l-33.997 32.102c-5.888 5.53-6.758 14.234-2.099 20.736l14.285 19.968c6.758 9.37 7.834 20.685 3.072 31.027-4.813 10.394-14.336 17.306-26.214 18.995l-26.266 3.84c-8.499 1.229-14.746 8.090-14.746 16.179v45.363c0 7.885 5.939 14.592 14.080 16.077l25.088 4.557c11.725 2.099 20.992 9.37 25.344 19.917 4.403 10.496 2.816 21.76-4.25 30.874l-15.718 20.275c-5.069 6.502-4.352 15.565 1.69 21.299l34.048 32.051c5.837 5.53 15.104 6.349 21.965 1.997l27.29-17.459c9.728-6.195 21.453-7.322 32.307-3.072 10.803 4.198 18.278 12.851 20.48 23.706l6.195 30.566c1.587 7.731 8.755 13.312 17.050 13.312h48.077c8.55 0 15.872-5.939 17.152-13.926l4.045-24.781c1.843-11.213 9.165-20.173 20.122-24.73 11.008-4.506 22.989-3.482 32.922 2.867l21.094 13.517c6.912 4.403 16.128 3.584 22.016-1.946l33.997-32.102c6.093-5.734 6.81-14.746 1.741-21.299l-15.718-20.224c-7.117-9.114-8.653-20.378-4.25-30.925 4.352-10.496 13.619-17.766 25.344-19.917l25.088-4.506c8.192-1.536 14.080-8.243 14.080-16.128v-45.363c0-8.090-6.246-14.95-14.694-16.179zM989.286 256.768l-10.957 1.997c-23.296 4.25-42.445 19.251-51.149 40.141-8.653 20.89-5.478 44.134 8.602 62.259l6.912 8.909-13.312 12.595-9.267-5.939c-19.661-12.595-44.442-14.746-66.202-5.786-21.811 8.96-36.966 27.546-40.602 49.766l-1.741 10.906h-18.893l-3.482-17.254c-4.403-21.555-19.866-39.424-41.318-47.821-21.504-8.448-45.773-6.093-65.024 6.246l-15.411 9.882-13.363-12.595 6.963-8.909c14.029-18.125 17.203-41.421 8.55-62.31-8.704-20.838-27.802-35.84-51.149-40.090l-11.008-1.997v-17.766l11.622-1.69c23.45-3.43 43.162-17.715 52.685-38.298 9.472-20.531 7.219-43.93-6.144-62.515l-6.246-8.755 13.312-12.544 9.472 6.502c19.149 13.261 43.827 16.333 65.946 8.141s37.99-26.266 42.496-48.282l2.099-10.394h18.842l0.563 3.584c3.738 22.63 19.302 41.421 41.779 50.227 22.426 8.755 47.514 5.888 67.123-7.68l3.072-2.099 13.312 12.544-6.246 8.755c-13.312 18.586-15.616 41.984-6.093 62.515 9.523 20.582 29.184 34.867 52.685 38.298l11.571 1.69v17.766zM798.362 169.472c-47.821 0-86.784 36.762-86.784 81.92s38.963 81.92 86.784 81.92c47.872 0 86.784-36.762 86.784-81.92s-38.912-81.92-86.784-81.92zM798.362 300.544c-28.672 0-52.070-22.067-52.070-49.152s23.398-49.152 52.070-49.152c28.723 0 52.070 22.067 52.070 49.152s-23.347 49.152-52.070 49.152zM989.286 448c-9.574 0-17.357 7.322-17.357 16.384v340.531l-405.658-338.176c-17.357-14.592-40.141-21.914-62.925-21.914-22.835 0-45.67 7.322-63.027 21.965l-24.678 20.582c-91.443-75.725-269.363-209.715-348.314-268.749h436.019c9.574 0 17.306-7.322 17.306-16.384s-7.731-16.384-17.306-16.384h-485.99c-2.15 0-4.198 0.461-6.144 1.178-0.614 0.205-1.126 0.512-1.741 0.819-1.229 0.614-2.406 1.331-3.43 2.202-0.563 0.41-1.024 0.87-1.536 1.331-0.922 1.024-1.69 2.15-2.355 3.379-0.307 0.512-0.666 0.973-0.87 1.536-0.102 0.205-0.256 0.358-0.307 0.563-0.666 1.741-0.922 3.482-0.922 5.222 0 0.051-0.051 0.102-0.051 0.154v638.976c0 0.154 0.102 0.256 0.051 0.358 0.051 1.843 0.358 3.686 1.075 5.427 0.051 0.154 0.154 0.205 0.154 0.307 0.205 0.41 0.512 0.768 0.717 1.178 0.717 1.331 1.536 2.56 2.611 3.635 0.461 0.512 0.922 0.87 1.434 1.28 1.075 0.922 2.253 1.638 3.533 2.253 0.563 0.256 1.075 0.563 1.69 0.768 1.946 0.717 3.942 1.178 6.093 1.178h971.93c2.15 0 4.147-0.461 6.093-1.126 0.614-0.256 1.126-0.512 1.69-0.819 1.28-0.614 2.458-1.331 3.533-2.253 0.512-0.41 0.973-0.768 1.434-1.229 1.024-1.126 1.894-2.355 2.611-3.686 0.205-0.41 0.512-0.717 0.666-1.178 0.051-0.102 0.154-0.154 0.205-0.307 0.717-1.741 0.973-3.584 1.024-5.427 0-0.102 0.102-0.205 0.102-0.358v-376.832c0-9.062-7.782-16.384-17.357-16.384zM34.714 236.032c70.912 52.992 258.253 193.69 354.714 273.203l-354.714 295.68v-568.883zM63.232 824.832l364.083-303.565c0.461-0.358 1.024-0.563 1.485-0.973 0.102-0.154 0.102-0.307 0.205-0.41l34.355-28.621c22.067-18.534 57.856-18.586 79.872-0.051l400.179 333.619h-880.179z" />
<glyph unicode="&#xe935;" glyph-name="Location" d="M798.72 350.362l-286.72-414.259-287.13 414.874c-107.162 142.848-91.597 378.624 33.69 503.91 67.686 67.738 157.696 105.062 253.44 105.062 95.693 0 185.702-37.325 253.44-105.062 125.235-125.286 140.8-361.062 33.28-504.525zM738.97 828.467c-60.621 60.672-141.21 94.054-226.97 94.054s-166.349-33.382-226.97-94.054c-113.101-113.101-127.027-326.042-29.85-455.629l256.819-371.046 256.41 370.432c97.587 130.202 83.661 343.142-29.44 456.243zM515.277 473.805c-72.090 0-130.816 58.726-130.816 130.867s58.726 130.867 130.816 130.867c72.141 0 130.867-58.726 130.867-130.867s-58.726-130.867-130.867-130.867zM515.277 698.163c-51.507 0-93.44-41.933-93.44-93.491s41.933-93.491 93.44-93.491c51.558 0 93.491 41.933 93.491 93.491s-41.933 93.491-93.491 93.491z" />
<glyph unicode="&#xe936;" glyph-name="Label-Settings" d="M987.802 509.491v234.189l-180.48 180.173h-224.307l-422.656-421.734 435.866-432.077-140.083-134.144-456.294 457.421 109.005 108.749-0.154 0.154 459.366 457.933h254.259l201.779-201.37v-249.293h-36.301zM51.2 393.216l405.504-406.477 87.501 83.763-409.549 405.965-83.456-83.251zM770.202 653.773c-39.373 0-71.475 32.051-71.475 71.475 0 39.373 32.102 71.475 71.475 71.475 39.424 0 71.475-32.051 71.475-71.475s-32.051-71.475-71.475-71.475zM770.202 760.371c-19.405 0-35.123-15.77-35.123-35.123 0-19.405 15.77-35.174 35.123-35.174 19.405 0 35.123 15.77 35.123 35.174 0 19.354-15.77 35.123-35.123 35.123zM586.035 195.43l14.95 22.118c7.014 10.394 8.192 22.886 3.174 34.406-5.018 11.469-15.002 19.149-27.392 21.043l-27.494 4.25c-8.858 1.382-15.411 8.96-15.411 17.92v50.33c0 8.704 6.195 16.179 14.746 17.818l26.214 5.018c12.288 2.406 21.965 10.445 26.573 22.118 4.557 11.622 2.918 24.115-4.454 34.202l-16.486 22.477c-5.274 7.219-4.506 17.254 1.843 23.552l35.533 35.584c6.195 6.144 15.821 7.066 23.040 2.202l28.518-19.302c10.138-6.912 22.477-8.192 33.792-3.482s19.149 14.285 21.453 26.317l6.502 33.894c1.638 8.55 9.114 14.746 17.818 14.746h50.278c8.96 0 16.589-6.554 17.971-15.411l4.198-27.546c1.894-12.39 9.574-22.374 21.043-27.341 11.52-5.018 24.064-3.891 34.406 3.174l22.118 14.95c7.27 4.864 16.896 3.942 23.040-2.202l35.533-35.584c6.349-6.298 7.117-16.333 1.843-23.552l-16.435-22.426c-7.424-10.138-9.062-22.579-4.506-34.253 4.608-11.674 14.285-19.712 26.573-22.118l26.214-5.018c8.499-1.638 14.694-9.114 14.694-17.869v-50.278c0-8.96-6.554-16.589-15.36-17.92l-27.546-4.25c-12.39-1.894-22.323-9.574-27.341-21.094-5.018-11.469-3.84-24.013 3.174-34.406l14.95-22.067c4.915-7.219 3.994-16.896-2.202-23.040l-35.533-35.584c-6.298-6.349-16.333-7.117-23.552-1.792l-15.821 11.571c-10.189 7.475-23.194 9.011-34.867 4.198-11.622-4.813-19.763-15.155-21.658-27.648l-2.97-19.302c-1.382-8.909-9.011-15.411-17.971-15.411h-50.278c-8.704 0-16.179 6.144-17.818 14.694l-5.069 26.266c-2.355 12.288-10.342 21.965-22.016 26.573-11.674 4.557-24.166 2.918-34.304-4.454l-22.426-16.486c-7.219-5.274-17.254-4.506-23.552 1.792l-35.533 35.584c-6.195 6.144-7.117 15.872-2.202 23.040zM631.040 197.171l-6.554-9.677 13.926-13.926 9.882 7.219c20.122 14.694 45.926 18.074 69.069 8.96 23.091-9.062 39.68-29.082 44.39-53.504l2.253-11.469h19.661l0.614 3.942c3.84 25.139 20.224 45.978 43.725 55.654 23.45 9.728 49.715 6.554 70.195-8.448l3.226-2.406 13.926 13.978-6.554 9.677c-13.926 20.582-16.333 46.49-6.4 69.274s30.566 38.656 55.142 42.445l12.134 1.894v19.712l-11.469 2.202c-24.422 4.71-44.442 21.35-53.555 44.493-9.062 23.194-5.683 48.947 9.011 69.018l7.219 9.882-13.926 13.926-9.677-6.554c-20.582-13.926-46.49-16.333-69.274-6.4s-38.656 30.566-42.445 55.142l-1.843 12.134h-19.712l-3.686-19.149c-4.608-23.91-20.736-43.725-43.213-53.043-22.528-9.318-47.923-6.707-68.045 6.912l-16.128 10.957-13.926-13.926 7.219-9.933c14.694-20.019 18.074-45.824 8.96-68.966-9.062-23.142-29.030-39.782-53.504-44.493l-11.469-2.202v-19.712l12.134-1.894c24.525-3.738 45.158-19.61 55.091-42.394s7.526-48.691-6.4-69.325zM769.894 415.334c50.074 0 90.829-40.755 90.829-90.778 0-50.074-40.755-90.829-90.829-90.829-50.022 0-90.778 40.755-90.778 90.829 0 50.022 40.755 90.778 90.778 90.778zM769.894 270.029c30.054 0 54.477 24.474 54.477 54.528 0 30.003-24.422 54.477-54.477 54.477-30.003 0-54.426-24.474-54.426-54.477 0-30.054 24.422-54.528 54.426-54.528z" />
<glyph unicode="&#xe937;" glyph-name="Drafts" d="M968.96 430.541l-349.594-338.688-96.563 93.594 349.542 338.637c5.069 4.915 13.312 4.915 18.432 0l78.182-75.725c5.069-4.915 5.069-12.902 0-17.818zM469.504 40.192l35.328 127.846 96.614-93.594-131.942-34.253zM153.6 345.6v51.2h256v-51.2h-256zM665.6 448h-512v51.2h512v-51.2zM665.6 550.4h-512v51.2h512v-51.2zM153.6 806.4h512v-51.2h-512v51.2zM665.6 652.8h-512v51.2h512v-51.2zM768 908.8h-716.8v-921.6h716.8v153.6l51.2 51.2v-256h-819.2v1024h819.2v-409.6l-51.2-51.2v409.6z" />
<glyph unicode="&#xe938;" glyph-name="Design" d="M975.258 82.278l48.742 0.768v-147.046h-146.278v48.742h-731.443v-48.742h-146.278v147.046l48.742-0.768v731.443l-48.742-0.768v147.046h146.278v-48.742h731.443v48.742h146.278v-147.046l-48.742 0.768v-731.443zM48.742-15.258h48.794v48.794h-48.794v-48.794zM97.536 911.258h-48.794v-48.794h48.794v48.794zM877.722 862.464h-731.443v-48.742h-48.742v-731.443h48.742v-48.742h731.443v48.742h48.742v731.443h-48.742v48.742zM975.258 911.258h-48.794v-48.794h48.794v48.794zM926.464 33.536v-48.794h48.794v48.794h-48.794zM536.371 179.814h292.557v-48.742h-292.557v48.742zM536.371 277.35h292.557v-48.794h-292.557v48.794zM195.072 374.835h633.856v-48.742h-633.856v48.742zM195.072 764.928h633.856v-341.299h-633.856v341.299zM292.557 716.186l219.443-111.002 219.443 111.002h-438.886zM780.186 716.186l-231.629-129.28 231.629-114.534v243.814zM731.443 472.371l-219.443 96.256-219.443-96.256h438.886zM243.814 472.371l231.629 114.534-231.629 129.28v-243.814zM487.629 228.557h-292.557v48.794h292.557v-48.794zM487.629 131.072h-292.557v48.742h292.557v-48.742z" />
<glyph unicode="&#xe939;" glyph-name="Create-Template" d="M870.4-64h-768v1024h819.2v-1024h-51.2zM870.4 908.8h-716.8v-921.6h716.8v921.6zM369.306 483.174h12.339c5.376 0 9.626-6.144 10.547-14.080h50.483l18.227 93.389c-12.8 16.486-20.326 38.554-20.326 62.464 0 41.83 23.091 77.056 54.374 87.398v94.054h34.15v-92.877c33.178-8.653 58.163-45.056 58.163-88.576 0-22.477-6.656-43.418-18.278-59.699l18.79-96.154h44.083c0.87 7.936 5.12 14.080 10.496 14.080h12.339c6.042 0 10.906-7.526 10.906-16.845v-1.485c0-9.267-4.864-23.859-10.906-23.859h-12.339c-4.096 0-7.629 6.81-9.472 14.080h-42.394l73.523-376.73-10.906-3.942 6.4-26.982c0.922-3.738-0.819-7.629-3.84-8.704-0.512-0.205-1.075-0.307-1.587-0.307-2.458 0-4.762 1.946-5.478 5.018l-6.4 26.982-5.478-1.997-28.826 46.285-64.87 340.378h-13.978v-28.109c0-7.782-5.069-14.080-11.366-14.080s-11.366 6.298-11.366 14.080v28.109h-18.944l-64.87-340.326-28.826-46.285-5.478 1.946-6.4-26.931c-0.717-3.072-3.021-5.069-5.478-5.069-0.512 0-1.024 0.102-1.587 0.307-3.021 1.075-4.71 4.966-3.84 8.704l6.4 26.982-10.906 3.942 73.523 376.73h-48.794c-1.843-7.27-5.376-14.080-9.472-14.080h-12.339c-6.042 0-10.906 14.592-10.906 23.859v1.485c0 9.318 4.864 16.845 10.906 16.845zM506.317 469.094v28.109c0 7.782 5.069 14.080 11.366 14.080s11.366-6.298 11.366-14.080v-28.109h11.315l-25.139 131.994-25.139-131.994h16.23zM472.422 621.619l42.803-15.565 42.752 15.565 7.578-38.81c6.605 12.288 10.342 26.726 10.342 42.138 0 42.189-27.802 76.544-62.003 76.544-34.15 0-61.952-34.355-61.952-76.544 0-16.896 4.454-32.666 12.237-45.619l8.243 42.291z" />
<glyph unicode="&#xe940;" glyph-name="Bounce-Settings" d="M0 857.6h614.4l-159.283-116.070 517.683-242.33v307.2h51.2v-819.2h-51.2v204.8l-716.8-204.8v102.4l540.467 245.76-455.117 174.080v-174.080l-341.35 522.24z" />
<glyph unicode="&#xe941;" glyph-name="App-Settings" d="M850.125 509.491c11.213 0 20.275-9.37 20.275-20.941 0-11.52-9.062-20.89-20.275-20.89h-22.477c-1.28-7.68-3.226-15.155-5.786-22.323l19.507-11.622c9.677-5.786 13.005-18.534 7.373-28.518-5.581-9.984-17.971-13.414-27.699-7.629l-19.456 11.622c-4.813-5.939-10.086-11.418-15.821-16.333l11.264-20.173c5.632-9.984 2.304-22.784-7.424-28.518-9.677-5.786-22.067-2.355-27.648 7.629l-11.264 20.122c-6.912-2.662-14.131-4.659-21.555-5.939v-23.245c0-11.571-9.062-20.941-20.275-20.941s-20.275 9.37-20.275 20.941v23.245c-7.424 1.28-14.643 3.277-21.555 5.939l-11.264-20.122c-5.581-9.984-17.971-13.414-27.648-7.629-9.728 5.734-13.056 18.534-7.424 28.518l11.264 20.173c-5.734 4.915-11.008 10.394-15.821 16.333l-19.456-11.622c-9.728-5.786-22.118-2.355-27.699 7.629-5.632 9.984-2.304 22.733 7.373 28.518l19.507 11.622c-2.56 7.168-4.506 14.643-5.786 22.323h-22.477c-11.213 0-20.275 9.37-20.275 20.89 0 11.571 9.062 20.941 20.275 20.941h22.477c1.28 7.68 3.226 15.155 5.786 22.323l-19.507 11.622c-9.677 5.734-13.005 18.534-7.373 28.518 5.581 9.984 17.971 13.414 27.699 7.629l19.456-11.622c4.813 5.939 10.086 11.366 15.821 16.333l-11.264 20.173c-5.632 9.984-2.304 22.784 7.424 28.518 9.677 5.786 22.067 2.355 27.648-7.629l11.264-20.122c6.912 2.662 14.131 4.659 21.555 5.939v23.245c0 11.571 9.062 20.941 20.275 20.941s20.275-9.37 20.275-20.941v-23.245c7.424-1.28 14.643-3.277 21.555-5.939l11.264 20.122c5.581 9.984 17.971 13.414 27.648 7.629 9.728-5.734 13.056-18.534 7.424-28.518l-11.264-20.173c5.734-4.966 11.008-10.394 15.821-16.333l19.456 11.622c9.728 5.786 22.118 2.355 27.699-7.629 5.632-9.984 2.304-22.784-7.373-28.518l-19.507-11.622c2.56-7.168 4.506-14.643 5.786-22.323h22.477zM708.864 571.187c-44.083 0-79.974-37.069-79.974-82.637 0-45.517 35.891-82.586 79.974-82.586s79.974 37.069 79.974 82.586c0 45.568-35.891 82.637-79.974 82.637zM531.456 394.138c11.008-1.997 18.432-12.8 16.538-24.166-1.946-11.418-12.39-19.046-23.45-17.101l-13.619 2.458c-1.331-3.482-2.867-6.81-4.506-10.086l10.65-9.114c8.602-7.424 9.779-20.582 2.611-29.491-7.168-8.858-19.968-10.086-28.57-2.714l-10.65 9.216c-2.816-2.304-5.734-4.403-8.755-6.4l4.813-13.466c3.84-10.854-1.536-22.835-12.032-26.829-10.496-4.045-22.17 1.536-26.010 12.39l-4.813 13.414c-3.482-0.563-7.066-0.922-10.65-1.024l-2.355-14.080c-1.894-11.418-12.39-19.046-23.398-17.101-11.059 1.997-18.432 12.8-16.538 24.166l2.355 14.080c-3.379 1.382-6.605 2.97-9.728 4.659l-8.858-11.008c-7.168-8.858-19.968-10.086-28.57-2.662-8.602 7.373-9.728 20.582-2.611 29.44l8.909 11.059c-2.202 2.867-4.25 5.888-6.144 9.011l-13.056-4.966c-10.496-3.994-22.17 1.536-26.010 12.39-3.891 10.854 1.485 22.886 11.981 26.88l13.005 4.915c-0.512 3.635-0.819 7.322-0.973 11.059l-13.619 2.406c-11.059 1.946-18.432 12.8-16.538 24.166v0c1.894 11.366 12.39 19.046 23.398 17.050l13.67-2.406c1.331 3.482 2.816 6.81 4.506 10.035l-10.65 9.165c-8.602 7.373-9.779 20.582-2.611 29.491 7.168 8.858 19.968 10.086 28.518 2.662l10.701-9.165c2.816 2.304 5.734 4.403 8.755 6.349l-4.813 13.466c-3.891 10.854 1.485 22.886 12.032 26.88 10.496 3.994 22.118-1.536 26.010-12.39l4.762-13.414c3.533 0.512 7.117 0.87 10.701 1.024l2.355 14.080c1.894 11.366 12.39 18.995 23.398 17.050 11.059-1.946 18.432-12.749 16.538-24.166l-2.355-14.080c3.328-1.382 6.605-2.918 9.728-4.659l8.858 11.008c7.168 8.858 19.968 10.086 28.57 2.714 8.602-7.424 9.728-20.582 2.56-29.491l-8.858-11.008c2.202-2.918 4.25-5.888 6.144-9.011l13.056 4.966c10.496 3.994 22.118-1.587 26.010-12.39 3.84-10.854-1.536-22.886-12.032-26.88l-13.005-4.966c0.512-3.635 0.87-7.27 1.024-11.008l13.619-2.406zM476.518 382.669c5.427 32.461-15.77 63.488-47.258 69.069s-61.491-16.282-66.918-48.794v0c-5.427-32.512 15.77-63.488 47.206-69.069 31.488-5.632 61.542 16.282 66.97 48.794v0zM708.864 691.866c-11.162 0-20.275 9.37-20.275 20.89v96.205h-494.438v-641.126h494.438v93.030c0 11.571 9.114 20.89 20.275 20.89 11.213 0 20.275-9.318 20.275-20.89v-303.974c0-11.52-9.062-20.89-20.275-20.89h-534.989c-11.213 0-20.275 9.37-20.275 20.89v982.221c0 11.52 9.062 20.89 20.275 20.89h534.989c11.213 0 20.275-9.37 20.275-20.89v-226.355c0-11.52-9.062-20.89-20.275-20.89zM194.15-22.221h494.438v148.224h-494.438v-148.224zM688.589 918.221h-494.438v-67.482h494.438v67.482zM441.549 21.76c-16.947 0-30.669 14.182-30.669 31.642s13.722 31.59 30.669 31.59c16.896 0 30.618-14.131 30.618-31.59s-13.722-31.642-30.618-31.642z" />
<glyph unicode="&#xe942;" glyph-name="one-a-time" d="M633.19-64c-153.088 0-278.579 117.35-287.795 265.011h-345.395v17.357c0 203.008 133.325 362.086 307.712 362.086 85.402 0 160.87-38.195 215.757-100.966 33.843 13.67 70.861 21.299 109.722 21.299 158.976 0 288.358-126.72 288.358-282.419s-129.382-282.368-288.358-282.368zM307.712 545.69c-149.606 0-267.776-134.758-275.149-309.914h312.832c6.093 97.946 63.437 182.528 146.022 228.352-48.435 50.944-112.486 81.562-183.706 81.562zM633.19 466.022c-30.618 0-59.853-5.632-87.040-15.411-10.906-3.942-21.555-8.397-31.744-13.722-74.752-39.168-126.976-113.971-133.222-201.114-0.41-5.786-0.87-11.52-0.87-17.408 0-5.837 0.461-11.571 0.87-17.357 9.165-128.41 118.528-230.246 252.006-230.246 139.418 0 252.877 111.104 252.877 247.654 0 136.499-113.459 247.603-252.877 247.603zM649.318 82.278h-20.941v146.278h-146.637v20.89h146.637v146.33h20.941v-146.33h146.586v-20.89h-146.586v-146.278zM307.712 599.296c-101.581 0-184.218 80.947-184.218 180.429 0 99.43 82.637 180.378 184.218 180.378s184.218-80.947 184.218-180.429c0-99.43-82.637-180.378-184.218-180.378zM307.712 925.338c-82.022 0-148.736-65.331-148.736-145.664 0-80.282 66.714-145.613 148.736-145.613s148.736 65.331 148.736 145.664c0 80.282-66.714 145.613-148.736 145.613z" />
<glyph unicode="&#xe943;" glyph-name="upload-from-pc" d="M953.446-12.749h-304.998c-38.451 0-70.502 33.331-70.502 73.318v2.662h35.891v-2.662c0-21.35 16.64-37.325 35.891-37.325h306.278c20.48 0 35.891 17.306 35.891 37.325v723.61c0 21.35-16.691 37.325-35.891 37.325h-304.998c-20.531 0-35.891-17.306-35.891-37.325v-86.63h-35.891v86.63c0 39.987 32.051 73.318 70.502 73.318h304.998c38.451 0 70.451-33.331 69.171-74.65v-722.278c0-39.987-32-73.318-70.451-73.318zM770.202 129.843v37.325h51.251v-37.325h-51.251zM679.219 738.867h234.496v-37.325h-234.496v37.325zM727.91 560.282v-386.458c0-39.987-32.051-73.267-71.782-73.267h-585.626c-38.451 0-70.502 33.28-70.502 73.267v386.458c0 39.987 32.051 73.318 70.502 73.318h586.906c38.451 0 70.502-33.331 70.502-73.318zM35.891 560.282v-386.458c0-19.968 15.36-37.325 34.611-37.325h586.906c20.48 0 35.891 17.357 35.891 37.325v386.458c0 21.35-16.691 37.325-35.891 37.325h-585.626c-20.531 0-35.891-17.306-35.891-37.325zM497.203-3.43h-266.547v37.325h266.547v-37.325z" />
<glyph unicode="&#xe944;" glyph-name="Process" d="M615.424 24.218c-8.448-2.099-17.050-3.994-25.6-5.581-19.284-3.864-33.61-20.661-33.61-40.804 0-13.903 6.825-26.213 17.307-33.761 6.711-4.806 14.935-7.635 23.82-7.635 2.646 0 5.234 0.251 7.741 0.73 9.984 1.854 20.224 4.106 30.464 6.615 18.176 4.659 31.396 20.895 31.396 40.218 0 22.896-18.561 41.457-41.457 41.457-3.573 0-7.040-0.452-10.348-1.302zM919.808 580.045c5.624-16.511 20.995-28.175 39.091-28.175 22.757 0 41.206 18.448 41.206 41.206 0 4.661-0.774 9.142-2.201 13.32-3.191 9.592-6.775 19.576-10.615 29.252-6.124 15.392-20.894 26.074-38.159 26.074-5.53 0-10.804-1.096-15.617-3.082-15.048-6.258-25.626-21.097-25.626-38.406 0-5.55 1.087-10.845 3.061-15.686 3.125-8.068 6.146-16.209 8.86-24.503zM749.158 83.405c-7.27-4.813-14.746-9.523-22.323-13.875-12.429-7.354-20.634-20.691-20.634-35.945 0-13.924 6.836-26.251 17.336-33.807 6.712-4.806 14.935-7.634 23.819-7.634 7.586 0 14.691 2.062 20.784 5.657 8.769 5.016 17.729 10.648 26.382 16.433 11.198 7.577 18.462 20.233 18.462 34.585 0 8.509-2.553 16.422-6.935 23.014-7.324 11.121-19.92 18.461-34.232 18.461-8.442 0-16.287-2.554-22.805-6.931zM1023.539 464.179c-0.904 22.023-18.977 39.533-41.139 39.533-22.739 0-41.172-18.433-41.172-41.172 0-0.576 0.012-1.15 0.035-1.72 0.356-8.674 0.407-17.531-0.003-26.286-0.007-0.288-0.011-0.628-0.011-0.969 0-13.913 6.843-26.228 17.346-33.762 6.472-4.628 14.346-7.419 22.862-7.611 0.4-0.012 0.816-0.018 1.233-0.018 22.519 0 40.831 18.016 41.309 40.421 0.001 10.592 0.001 21.19-0.409 31.635zM913.101 192.512c-6.788 5.182-15.392 8.303-24.724 8.303-13.448 0-25.382-6.481-32.85-16.49-5.197-7.122-10.829-14.034-16.461-20.588-6.191-7.229-9.959-16.692-9.959-27.036 0-12.687 5.669-24.050 14.612-31.694 1.030-0.867 2.054-1.635 3.078-2.403 6.584-4.714 14.802-7.538 23.678-7.538 12.531 0 23.748 5.627 31.261 14.493 6.756 7.996 13.361 16.29 19.556 24.687 5.211 6.882 8.348 15.586 8.348 25.023 0 13.53-6.448 25.555-16.438 33.168zM973.619 342.426c-3.706 1.219-7.972 1.922-12.401 1.922-18.395 0-33.957-12.125-39.131-28.82-2.689-8.636-5.556-17.033-8.679-25.225-1.705-4.376-2.692-9.441-2.692-14.737 0-13.922 6.827-26.25 17.315-33.819 6.732-4.852 14.995-7.71 23.925-7.71 17.509 0 32.452 10.986 38.312 26.441 3.78 10.061 7.211 20.045 10.334 29.978 1.205 3.712 1.9 7.983 1.9 12.416 0 18.416-11.989 34.032-28.588 39.469zM436.019 18.278c-39.702 7.282-75.095 19.005-108.108 34.891l1.356-0.484c-7.885 3.738-15.77 7.731-23.398 11.93v0c-134.454 75.426-223.822 217.064-223.822 379.574 0 93.363 29.497 179.837 79.679 250.612 28.242 40.115 63.177 75.164 103.181 103.535l2.818 1.921c68.085 47.818 152.691 76.418 243.976 76.418 88.859 0 171.389-27.1 239.775-73.486l-33.653-45.838c-8.96-13.005-3.43-22.528 12.237-21.094l139.674 12.595c12.409 0.472 22.289 10.646 22.289 23.127 0 2.568-0.418 5.039-1.191 7.347l-37.636 135.978c-4.198 15.36-14.95 17.101-23.91 4.045l-32.256-46.899c-79.627 54.826-178.156 87.567-284.331 87.567-31.152 0-61.646-2.819-91.241-8.214q-16.671-2.963-35.923-7.929h-0.256l-1.28-0.461c-115.973-30.551-213.105-97.934-280.64-188.654-1.575-2.066-2.138-2.732-2.701-3.5-2.406-3.174-4.71-6.298-7.014-9.677-3.686-5.12-7.373-10.752-10.854-16.179-0.41-0.922-0.87-1.331-1.126-1.997-51.224-78.58-81.69-174.757-81.69-278.051 0-8.272 0.195-16.498 0.582-24.674-0.044 0.798-0.044 0.439-0.044 0.081 0.461-10.24 1.28-20.941 2.406-31.334 0-0.666 0-1.28 0.307-1.997 1.126-10.24 2.611-20.89 4.403-31.334 18.945-109.363 70.168-204.426 143.354-277.498l0.518-0.569c19.808-19.686 41.227-37.806 64.021-54.128 59.264-42.687 128.055-72.844 202.584-86.653 4.601-0.668 6.318-0.775 8.061-0.775 22.904 0 41.472 18.568 41.472 41.472 0 19.481-13.432 35.824-31.54 40.275zM224.768 629.094v-361.574h572.518v361.574h-572.518zM689.357 582.502l-178.33-135.322-169.574 135.322h348.16zM271.616 314.163l-0.614 268.339 240.026-184.32 239.974 184.32-0.614-268.339h-478.771z" />
<glyph unicode="&#xe945;" glyph-name="Corn-Seting" d="M812.134 359.731c-117.010 0-211.866-94.855-211.866-211.866s94.855-211.866 211.866-211.866c117.010 0 211.866 94.855 211.866 211.866-0.146 116.952-94.914 211.72-211.852 211.866zM812.134-28.672c-97.499 0-176.538 79.039-176.538 176.538s79.039 176.538 176.538 176.538c97.499 0 176.538-79.039 176.538-176.538-0.117-97.452-79.086-176.421-176.527-176.538zM918.067 165.53h-88.269v88.269c0 9.756-7.908 17.664-17.664 17.664s-17.664-7.908-17.664-17.664v-105.933c0-9.756 7.908-17.664 17.664-17.664h105.933c9.756 0 17.664 7.908 17.664 17.664s-7.908 17.664-17.664 17.664zM476.672 589.261h-353.28v-512h353.28v317.747h317.798v194.253h-317.798zM635.392 553.933h123.597v-123.597h-123.392v123.597zM317.594 553.933h123.802v-123.597h-123.597v123.597zM158.874 553.933h123.597v-123.597h-123.75v123.597zM158.874 395.213h123.597v-123.597h-123.75v123.392zM282.47 112.742h-123.75v123.392h123.75v-123.597zM441.19 112.742h-123.392v123.392h123.597v-123.597zM441.19 271.462h-123.392v123.546h123.597v-123.597zM599.91 430.182h-123.238v123.75h123.597v-123.597zM582.246-11.213h-546.918v688.742h847.411v-229.53c0-9.756 7.908-17.664 17.664-17.664s17.664 7.908 17.664 17.664v423.731c0 0.015 0 0.033 0 0.051 0 9.727-7.886 17.613-17.613 17.613-0.018 0-0.036 0-0.054 0h-88.266v52.941c0 9.756-7.908 17.664-17.664 17.664h-123.75c-9.756 0-17.664-7.908-17.664-17.664v-52.941h-388.25v52.941c0 0 0 0 0 0 0 9.738-7.879 17.635-17.61 17.664h-123.6c-9.756 0-17.664-7.908-17.664-17.664v-52.941h-88.269c-9.756 0-17.664-7.908-17.664-17.664v-900.403c0-9.756 7.908-17.664 17.664-17.664h564.941c9.338 0.519 16.713 8.217 16.713 17.638s-7.376 17.12-16.668 17.636zM688.538 924.672h88.269v-105.933h-88.269v105.933zM141.21 924.672h88.32v-105.933h-88.269v105.933zM35.328 854.067h70.605v-52.787c0-9.756 7.908-17.664 17.664-17.664h123.597c9.734 0.029 17.613 7.926 17.613 17.664 0 0 0 0 0 0v52.787h388.403v-52.787c0-9.756 7.908-17.664 17.664-17.664h123.597c9.756 0 17.664 7.908 17.664 17.664v52.787h70.605v-141.261h-847.411v141.261z" />
<glyph unicode="&#xe946;" glyph-name="More" d="M128 550.4c70.692 0 128-57.308 128-128s-57.308-128-128-128c-70.692 0-128 57.308-128 128s57.308 128 128 128zM512 550.4c70.692 0 128-57.308 128-128s-57.308-128-128-128c-70.692 0-128 57.308-128 128s57.308 128 128 128zM896 550.4c70.692 0 128-57.308 128-128s-57.308-128-128-128c-70.692 0-128 57.308-128 128s57.308 128 128 128z" />
<glyph unicode="&#xe947;" glyph-name="FAQ" d="M535.808 302.643c5.908-6.056 9.552-14.343 9.552-23.482 0-0.493-0.011-0.983-0.032-1.471-0.265-9.471-3.822-18.132-9.567-24.87-5.846-5.935-14.040-9.648-23.101-9.648-0.466 0-0.93 0.010-1.392 0.029-9.364 0.286-17.897 3.904-24.448 9.71-5.868 6.020-9.512 14.308-9.512 23.447 0 0.493 0.011 0.983 0.032 1.471 0.265 9.471 3.822 18.132 9.567 24.87 6.422 5.735 15.011 9.275 24.427 9.275s18.005-3.54 24.509-9.362zM535.808 651.264c-6.871 1.511-14.764 2.376-22.859 2.376-26.447 0-50.736-9.236-69.819-24.659-24.884-20.708-40.744-51.939-40.749-86.874 0-18.777 15.221-33.998 33.997-33.998s33.997 15.221 33.997 33.997c0 0.065-0.001 0.142-0.001 0.219 0 13.416 6.363 25.346 16.235 32.938 7.342 5.972 16.685 9.545 26.863 9.545 3.529 0 6.958-0.43 10.238-1.24 15.459-3.593 27.591-15.896 30.942-31.463 0.71-3.178 1.089-6.516 1.089-9.942 0-13.835-6.179-26.226-15.929-34.565-36.095-28.323-59.187-71.67-59.761-120.431-0.001-18.87 15.22-34.091 33.996-34.091s33.997 15.221 33.997 33.997c0.479 26.71 13.669 50.242 33.762 64.861 26.146 20.428 42.646 51.693 42.646 86.812 0 9.022-1.089 17.79-3.143 26.179-8.818 42.806-42.19 76.676-84.756 86.25zM1024 449.331c-0.682-104.667-38.616-200.344-101.19-274.566 13.312-25.371 31.848-46.827 54.575-62.693 13.65-9.315 22.147-24.198 22.147-41.065 0-3.716-0.412-7.336-1.194-10.816-3.326-19.485-19.268-34.73-39.153-37.028-14.92-2.65-31.859-4.158-49.148-4.167-0.567-0.004-1.229-0.006-1.89-0.006-49.819 0-96.895 11.743-138.611 32.613-73.061-40.873-161.95-64.406-256.336-64.406-0.656 0-1.311 0.001-1.966 0.003-282.779 0-511.233 206.182-511.233 460.8s229.837 460.8 511.334 460.8c282.88 1.178 512.666-206.336 512.666-459.469zM956.006 449.331c0 215.808-198.554 391.526-443.392 391.526s-443.392-175.718-443.392-391.526 198.554-391.526 443.392-391.526c0.403-0.001 0.881-0.002 1.358-0.002 88.989 0 172.464 23.612 244.5 64.913 2.531 1.347 8.384 2.884 14.596 2.884s12.064-1.536 17.199-4.25c31.234-19.29 69.19-31.045 109.839-31.747-19.984 22.576-36.152 49.241-46.878 78.53-1.715 5.192-2.39 9.216-2.39 13.398 0 9.197 3.268 17.631 8.707 24.204 59.417 63.63 96.069 149.291 96.512 243.509z" />
<glyph unicode="&#xe948;" glyph-name="Bonus" d="M819.2 755.2c8.974 17.044 14.241 37.245 14.241 58.677 0 10.056-1.16 19.841-3.352 29.229 0.174-0.544 0.175-0.165 0.175 0.215 0 64.049-51.604 116.045-115.503 116.679-48.137 0-158.78-71.68-203.17-136.448-45.67 64.768-156.109 134.349-202.291 134.349-63.971-0.692-115.563-52.712-115.563-116.781 0-0.344 0.001-0.688 0.004-1.032-1.739-7.934-2.735-17.108-2.735-26.515 0-21.279 5.097-41.368 14.136-59.113l-205.142 0.74v-256h51.2v-563.2h921.6v563.2h51.2v256h-204.8zM714.701 916.326c39.823-0.972 71.735-33.485 71.735-73.451 0-0.998-0.020-1.991-0.059-2.978 0.007-0.096 0.009-0.378 0.009-0.659 0-35.958-24.911-66.098-58.417-74.102l-177.107-0.105c-6.48 0.327-12.006 4.108-14.802 9.527-0.046 37.27 130.565 141.769 178.642 141.769zM309.299 916.326c45.773 0 178.688-104.499 178.688-141.67-3.084-4.69-7.739-8.13-13.204-9.589l-178.233-0.036c-34.024 8.109-58.935 38.249-58.935 74.207 0 0.282 0.002 0.563 0.005 0.844-0.013 0.462-0.020 1.057-0.020 1.654 0 40.19 31.761 72.962 71.552 74.587zM358.4-12.8h-256v512h256v-512zM358.4 550.4h-307.2v153.6h307.2v-153.6zM614.4-12.8h-204.8v716.8h204.8v-716.8zM921.6-12.8h-256v512h256v-512zM972.8 550.4h-307.2v153.6h307.2v-153.6z" />
<glyph unicode="&#xe949;" glyph-name="training" d="M1024 913.756v-32.768c0-0.066 0.001-0.145 0.001-0.223 0-18.854-11.268-35.076-27.437-42.299l-0.294-561.105c0.001-0.092 0.001-0.2 0.001-0.309 0-26.478-21.354-47.968-47.78-48.188h-471.819c-26.456 0.209-47.821 21.703-47.821 48.188 0 0.087 0 0.174 0.001 0.261v310.095c0 8.483 6.877 15.36 15.36 15.36s15.36-6.877 15.36-15.36v-310.047c0-0.025 0-0.053 0-0.083 0-9.507 7.667-17.224 17.155-17.305h471.744c9.478 0.104 17.121 7.812 17.121 17.305 0 0.029 0 0.058 0 0.087v557.256h-506.102v-91.525c0-8.483-6.877-15.36-15.36-15.36s-15.36 6.877-15.36 15.36v95.13c-16.597 7.298-27.976 23.595-27.976 42.55 0 0.039 0 0.077 0 0.116v32.762c-0.001 0.092-0.001 0.2-0.001 0.309 0 25.297 20.403 45.829 45.652 46.037h531.865c25.277-0.197 45.691-20.733 45.691-46.038 0-0.072 0-0.145-0.001-0.217zM849.531-62.403c-7.465 0.045-13.666 5.401-15.017 12.479l-44.211 231.070h-155.791l-44.175-230.973c-1.378-7.172-7.604-12.518-15.078-12.518-8.472 0-15.34 6.868-15.34 15.34 0 1.089 0.113 2.151 0.329 3.176l46.574 243.448c1.368 7.18 7.579 12.54 15.049 12.575h181.108c7.474-0.035 13.685-5.395 15.038-12.479l46.587-243.644c0.183-0.894 0.287-1.921 0.287-2.973 0-7.479-5.289-13.723-12.331-15.195-0.981-0.199-1.993-0.303-3.029-0.304zM910.316 614.687l-17.736-83.538c-0.159-0.769-0.704-1.381-1.418-1.634-0.114-0.015-0.228-0.020-0.343-0.020s-0.229 0.006-0.342 0.016c-0.007-0.002-0.033-0.002-0.058-0.002-0.553 0-1.055 0.219-1.423 0.575l-19.845 18.186-104.202-116.736c-2.556-2.86-6.152-4.744-10.188-5.055-0.208-0.013-0.391-0.019-0.574-0.019s-0.366 0.006-0.547 0.017c-0.508-0.001-1.081-0.001-1.593-0.001-4.091 0.271-7.696 2.149-10.226 5.002l-106.94 119.824-106.865-119.685c-2.804-3.144-6.866-5.114-11.389-5.114-3.977 0-7.597 1.523-10.311 4.018-3.086 2.861-5.017 6.95-5.017 11.491 0 3.995 1.495 7.641 3.957 10.408l118.299 132.49c2.552 2.873 6.147 4.771 10.186 5.096 0.452 0.034 0.917 0.052 1.385 0.052s0.933-0.017 1.393-0.052c4.038-0.265 7.648-2.161 10.164-5.038l106.982-119.887 83.005 92.959c0.032 0.071 0.073 0.132 0.123 0.185l9.687 10.813-19.927 18.227c-0.459 0.378-0.75 0.947-0.75 1.584 0 0.165 0.019 0.325 0.056 0.478 0.178 0.773 0.741 1.397 1.476 1.66l80.298 26.219c0.193 0.066 0.415 0.105 0.646 0.105 0.543 0 1.037-0.211 1.403-0.556 0.44-0.434 0.714-1.038 0.714-1.707 0-0.106-0.007-0.21-0.020-0.312zM846.418 568.975l-9.687-10.813c0.284 0.43 0.587 0.805 0.923 1.148l8.682 9.747zM638.976 669.921c-2.689 25-23.664 44.298-49.15 44.319h-281.541c-0.091 0.001-0.199 0.002-0.307 0.002-1.169 0-2.322-0.068-3.456-0.199 0.101 0.040 0.055 0.057 0.005 0.057s-0.096-0.016-0.134-0.044h-157.388c-81.323-0.626-147.007-66.696-147.007-148.107 0-0.253 0.001-0.507 0.002-0.76v-286.005c0-0.017 0-0.038 0-0.058 0-3.782 0.418-7.465 1.21-11.008 0.403-1.816 0.946-3.646 1.607-5.418 6.517-18.926 24.434-32.483 45.518-32.483 0.028 0 0.056 0 0.084 0 26.788 0.197 48.431 21.962 48.431 48.782 0 0.080 0 0.159-0.001 0.239v279.028c0.597 0.297 1.295 0.489 2.033 0.532 0.063 0.005 0.12 0.008 0.178 0.008 0.244 0 0.476-0.048 0.689-0.135l-0.012-568.193c0-0.076-0.001-0.166-0.001-0.256 0-15.104 6.138-28.775 16.055-38.654 9.533-9.625 22.75-15.584 37.359-15.584 0.475 0 0.948 0.006 1.419 0.019 29.412 1.206 52.855 25.398 52.855 55.067 0 0.253-0.002 0.505-0.005 0.757v264.482h21.402v-262.963c0.041-16.294 6.777-31.007 17.6-41.541 10.053-9.78 23.779-15.803 38.912-15.803 0.062 0 0.124 0 0.187 0 0.912 0 1.895 0 2.796 0 30.221 2.012 53.973 27.018 53.973 57.572 0 0.337-0.003 0.674-0.009 1.010l0.001 269.794c0 1.679 0 3.379-0.205 4.997 0.133 0.648 0.209 1.393 0.209 2.155 0 0.106-0.001 0.212-0.004 0.318v330.286c0 0.024 0 0.053 0 0.082 0 7.685 6.207 13.921 13.881 13.967h234.623c14.253 0.034 27.050 6.243 35.861 16.092 7.804 8.767 12.548 20.325 12.548 32.991 0 1.64-0.079 3.261-0.235 4.86zM212.255 683.049h17.121l17.306-164.536-25.846-35.512-25.907 35.533zM311.603 264.376c0 0.034 0 0.074 0 0.114 0 1.466-0.142 2.899-0.412 4.286 0.035-0.082 0.041-0.015 0.041 0.054s-0.007 0.136-0.020 0.201c-0.098 0.41-0.164 0.895-0.183 1.393 0 0.505 0 0.956 0 1.427s0 1.024 0 1.556 0.143 0.983 0.225 1.454c0.097 0.578 0.232 1.088 0.409 1.578l-0.020-12.064zM2.703 263.004c-1.693 2.465-2.704 5.513-2.704 8.798 0 0.025 0 0.049 0 0.074v7.308c0-0.017 0-0.038 0-0.058 0-3.782 0.418-7.465 1.21-11.008 0.395-1.815 0.931-3.646 1.586-5.419zM311.603 276.398v-9.175c-0.138 0.38-0.272 0.853-0.376 1.338-0.002 0.133 0.005 0.201 0.005 0.269s-0.007 0.136-0.020 0.201c-0.098 0.41-0.164 0.895-0.183 1.393 0 0.505 0 0.956 0 1.427s0 1.024 0 1.556 0.143 0.983 0.225 1.454c0.082 0.575 0.203 1.086 0.366 1.579zM342.323 271.852v-7.455c0 1.679 0 3.379-0.205 4.997 0.111 0.594 0.175 1.277 0.175 1.975 0 0.177-0.004 0.353-0.012 0.528zM311.603 276.398v-12.001c0 0.034 0 0.074 0 0.114 0 1.466-0.142 2.899-0.412 4.286 0.035-0.082 0.041-0.015 0.041 0.054s-0.007 0.136-0.020 0.201c-0.098 0.41-0.164 0.895-0.183 1.393 0 0.505 0 0.956 0 1.427s0 1.024 0 1.556 0.143 0.983 0.225 1.454c0.083 0.568 0.205 1.073 0.366 1.559zM339.292 838.595c-0.832-64.705-53.48-116.838-118.304-116.838-65.342 0-118.313 52.971-118.313 118.313s52.971 118.313 118.313 118.313c0.004 0 0.008 0 0.012 0 65.438-0.498 118.293-53.661 118.293-119.17 0-0.217-0.001-0.434-0.002-0.651z" />
<glyph unicode="&#xe950;" glyph-name="social-setting" d="M882.688 463.36l141.312 42.957c-7.628 66.156-26.742 126.356-55.361 180.777l-140.019-45.712c-18.707 30.395-40.369 56.568-65.171 79.378l69.318 130.542c-46.531 37.377-100.997 67.258-160.206 86.674l-73.522-129.375c-26.266 6.698-56.419 10.543-87.471 10.543-5.25 0-10.475-0.11-15.672-0.328l-42.214 141.183c-66.156-7.628-126.356-26.742-180.777-55.361l45.763-139.967c-30.394-18.709-56.566-40.37-79.378-65.171l-130.542 69.267c-37.393-46.526-67.276-100.995-86.677-160.211l129.326-73.517c-6.698-26.266-10.543-56.419-10.543-87.471 0-5.25 0.11-10.475 0.328-15.672l-141.183-42.214c7.628-66.156 26.742-126.356 55.361-180.777l140.019 45.712c18.716-30.391 40.376-56.562 65.173-79.379l-69.32-130.49c46.527-37.389 100.996-67.271 160.21-86.676l73.518 129.326c26.282-6.697 56.453-10.54 87.522-10.54 5.233 0 10.44 0.109 15.619 0.325l42.216-141.183c66.155 7.621 126.356 26.735 180.774 55.36l-45.709 140.020c30.394 18.708 56.567 40.369 79.377 65.171l130.543-69.318c37.376 46.532 67.257 100.998 86.674 160.206l-129.375 73.522c6.615 26.104 10.412 56.072 10.412 86.927 0 5.442-0.118 10.856-0.352 16.241zM601.446 153.6c-26.801-8.457-57.622-13.33-89.581-13.33-169.916 0-307.661 137.744-307.661 307.661s137.744 307.661 307.661 307.661c138.019 0 254.81-90.882 293.796-216.067 9.001-28.918 13.85-59.666 13.85-91.547 0-137.952-90.794-254.698-215.886-293.74zM592.486 389.427c-23.286-0.003-44.022-10.914-57.379-27.901l-135.389 67.529c1.633 5.671 2.572 12.185 2.572 18.918s-0.939 13.247-2.694 19.418l135.392 67.136c13.639-17.302 34.597-28.308 58.126-28.308 40.775 0 73.83 33.055 73.83 73.83s-33.055 73.83-73.83 73.83c-40.775 0-73.83-33.055-73.83-73.83 0-6.906 0.948-13.59 2.721-19.93l-135.394-67.013c-13.516 17.163-34.296 28.083-57.626 28.083-40.408 0-73.165-32.757-73.165-73.165s32.757-73.165 73.165-73.165c23.33 0 44.11 10.92 57.507 27.927l135.389-67.428c-1.594-5.697-2.511-12.239-2.511-18.995 0-40.38 32.734-73.114 73.114-73.114s73.114 32.734 73.114 73.114c0 40.38-32.734 73.114-73.114 73.114-0.017 0-0.035 0-0.052 0zM592.486 623.462c24.233 0 43.878-19.645 43.878-43.878s-19.645-43.878-43.878-43.878c-24.233 0-43.878 19.645-43.878 43.878 0 0.015 0 0.033 0 0.051 0 24.226 19.61 43.871 43.822 43.929zM329.165 404.122c-24.233 0-43.878 19.645-43.878 43.878s19.645 43.878 43.878 43.878c24.233 0 43.878-19.645 43.878-43.878-0.029-24.222-19.657-43.849-43.876-43.878zM592.486 272.486c-24.233 0-43.878 19.645-43.878 43.878s19.645 43.878 43.878 43.878c24.233 0 43.878-19.645 43.878-43.878 0-24.262-19.668-43.93-43.93-43.93z" />
<glyph unicode="&#xe951;" glyph-name="change-password" d="M0 960v-51.2h563.2l102.4 51.2h-665.6zM0-12.8v-51.2h1024v51.2h-1024zM0 960h51.2v-1024h-51.2v1024zM972.8 362.65l51.2 85.35v-426.65l-51.2-85.35v426.65zM184.73 496.742l0.023 95.334c-0.212 3.372-0.32 6.773-0.32 10.199 0 84.262 65.156 153.305 148.818 159.506 79.026-4.958 142.161-68.501 146.493-148.099l38.634 6.083c-5.426 100.055-85.179 180.34-186.251 186.593-104.436-7.818-186.739-95.030-186.739-201.465 0-4.347 0.137-8.663 0.378-12.357v-95.795h38.963zM500.378 89.6h-335.155c-35.303 2.66-62.939 31.958-62.939 67.71 0 1.396 0.042 2.783 0.125 4.159l-0.009 287.35c-0.074 1.186-0.116 2.573-0.116 3.97 0 35.752 27.636 65.050 62.711 67.697l335.383 0.014c35.303-2.66 62.939-31.958 62.939-67.71 0-1.396-0.042-2.783-0.125-4.159l0.009-287.35c0.074-1.186 0.116-2.573 0.116-3.97 0-35.752-27.636-65.050-62.711-67.697l-0.228-0.014zM165.222 472.781c-11.769-0.885-20.984-10.652-20.984-22.57 0-0.489 0.016-0.975 0.046-1.457l-0.003-287.473c-0.027-0.416-0.043-0.902-0.043-1.391 0-11.919 9.214-21.686 20.908-22.566l335.231-0.005c11.769 0.885 20.984 10.652 20.984 22.57 0 0.489-0.016 0.975-0.046 1.457l0.003 287.473c0.027 0.416 0.043 0.902 0.043 1.391 0 11.919-9.214 21.686-20.908 22.566l-335.231 0.005zM374.682 376.986c0.056-0.845 0.089-1.832 0.089-2.826 0-23.818-18.44-43.33-41.823-45.037-23.911 3.293-42.009 23.478-42.009 47.889s18.097 44.596 41.607 47.869c23.784-1.687 42.224-21.198 42.224-45.017 0-0.994-0.032-1.981-0.095-2.96zM343.245 377.037h-20.685l-21.197-143.718h62.874l-21.197 143.667zM692.582 295.066c-0.515-0.089-1.109-0.14-1.714-0.14-1.411 0-2.758 0.277-3.988 0.78-3.437 1.374-5.956 4.559-6.377 8.377l-15.364 150.984c-0.044 0.356-0.069 0.768-0.069 1.186 0 1.42 0.289 2.772 0.811 4.001l202.471 486.64c3.342 7.617 10.818 12.84 19.514 12.84 2.799 0 5.472-0.541 7.919-1.525l115.057-46.029c7.642-3.088 12.936-10.446 12.936-19.040 0-2.79-0.558-5.449-1.568-7.873l-202.497-486.725c-0.692-1.617-1.72-2.973-3.003-4.030l-118.904-97.294c-1.379-1.157-3.083-1.973-4.955-2.295zM686.080 454.554l13.312-129.229 101.786 83.302 201.677 484.813-115.149 46.080zM809.882 402.381v0zM981.918 801.645c3.673 0.516 6.735 2.933 8.163 6.224 0.509 1.215 0.79 2.55 0.79 3.95 0 4.309-2.661 7.996-6.499 9.532l-134.383 53.631c-1.285 0.558-2.704 0.867-4.194 0.867-4.374 0-8.125-2.662-9.724-6.456-0.509-1.215-0.79-2.55-0.79-3.95 0-4.309 2.661-7.996 6.499-9.532l134.227-53.53c1.23-0.503 2.577-0.78 3.988-0.78 0.605 0 1.199 0.051 1.714 0.14zM811.42 392.198c3.623 0.507 6.638 2.91 8.011 6.173 0.509 1.215 0.79 2.55 0.79 3.95 0 4.309-2.661 7.996-6.499 9.532l-134.381 53.632c-1.239 0.511-2.597 0.794-4.021 0.794-4.346 0-8.078-2.629-9.694-6.384-0.527-1.234-0.819-2.593-0.819-4.020 0-4.242 2.58-7.882 6.323-9.461l134.38-53.632c1.233-0.502 2.581-0.779 3.994-0.779 0.603 0 1.195 0.050 1.708 0.139z" />
<glyph unicode="&#xe952;" glyph-name="video" d="M993.28 719.36c-7.636 3.937-16.664 6.245-26.231 6.245-12.165 0-23.458-3.731-32.798-10.112l-194.36-131.967v85.043c-1.285 76.405-63.525 137.851-140.116 137.851-0.835 0-1.668-0.007-2.499-0.022l-454.531 0.002c-0.599 0.009-1.307 0.014-2.016 0.014-76.589 0-138.828-61.442-140.114-137.724l-0.002-440.85c1.345-76.358 63.561-137.742 140.114-137.742 0.691 0 1.381 0.005 2.070 0.015l454.603-0.001c0.585-0.009 1.275-0.014 1.966-0.014 76.553 0 138.769 61.384 140.112 137.616l0.002 84.964 194.56-132.147c9.114-6.252 20.382-9.984 32.521-9.984 0.033 0 0.065 0 0.098 0 0.161-0.002 0.357-0.003 0.554-0.003 9.495 0 18.464 2.251 26.403 6.249 17.908 8.887 30.259 27.332 30.383 48.674v445.303c-0.252 21.251-12.565 39.567-30.402 48.445zM682.701 530.842v-303.002c-0.801-45.814-38.129-82.645-84.058-82.645-0.418 0-0.836 0.003-1.253 0.009l-454.644-0.001c-0.369-0.006-0.805-0.009-1.241-0.009-45.93 0-83.257 36.832-84.057 82.571l-0.001 440.805c0.801 45.814 38.128 82.646 84.058 82.646 0.436 0 0.872-0.003 1.307-0.010l454.642 0.001c0.354 0.005 0.771 0.008 1.19 0.008 45.93 0 83.257-36.832 84.057-82.57l0.001-137.803zM966.861 225.69l-227.379 154.214v136.602l227.379 154.214v-445.082z" />
<glyph unicode="&#xe953;" glyph-name="delete" d="M819.2-64h-614.4v665.6h614.4v-665.6zM921.6 704h-819.2v153.6h307.2v102.4h204.8v-102.4h307.2v-153.6z" />
<glyph unicode="&#xe954;" glyph-name="api" d="M538.163 515.226c-7.911-1.192-17.041-1.873-26.329-1.873-34.916 0-67.585 9.62-95.501 26.355-33.971 18.321-25.267 31.838-25.267 82.372 9.605-3.924 17.889-8.937 25.248-15.028 8.237-5.24 17.894-9.962 28.087-13.546 22.356-7.907 47.004-12.302 72.678-12.302 24.66 0 48.373 4.054 70.508 11.533 19.012 6.401 36.782 16.557 52.081 29.535l-3.252-48.729c0.187-1.256 0.294-2.705 0.294-4.179 0-13.488-8.946-24.886-21.228-28.586-22.143-14.224-48.485-23.469-76.809-25.621l-0.561-0.034zM162.304 777.267c0-47.462 133.99-87.654 223.949-39.731 9.156 6.002 17.133 12.271 24.535 19.15l-0.113-65.589c-30.268-26.926-70.373-43.376-114.321-43.376-9.256 0-18.341 0.73-27.202 2.135-39.157 2.103-75.348 17.366-103.833 41.457l0.261 51.497c-19.411-8.217-36.146-17.965-51.443-29.517-17.548-8.398-33.108-19.426-46.591-32.574l447.73-268.918c21.16 10.595 39.010 21.264 56.007 33.075l334.291 203.315c16.55 11.78 35.394 22.639 55.257 31.645-1.089 10.537-9.359 17.679-19.471 19.229-23.512 15.771-50.629 31.447-78.81 45.289-4.132-46.909 5.801-49.929-37.821-72.969-90.214-47.667-203.162-1.741-210.688 27.29-0.768 11.223-1.206 24.324-1.206 37.528 0 8.41 0.178 16.778 0.529 25.101 11.275-7.486 12.709-10.865 23.87-17.368 97.536-56.73 276.122-4.659 214.067 60.314-35.174 36.864-114.125 29.491-133.376 31.642s-61.952 39.219-84.941 44.851c0-51.2 3.635-65.382-31.488-84.019-11.68-6.721-25.201-12.16-39.498-15.606-84.15-19.568-177.385 17.194-177.385 47.914 0 22.938 3.277 29.85 3.277 51.712l-50.995-29.082c-7.283-5.547-15.543-10.507-24.328-14.516s-150.264-0.28-150.264-59.877zM551.424 332.493v-396.493c10.231 2.907 19.154 7.398 26.992 13.261 9.667 6.247 16.886 9.319 27.178 15.77 18.381 11.52 33.946 19.507 52.275 31.027l157.133 92.774c19.814 11.162 143.872 88.474 157.952 92.16v427.315zM51.2 184.218c20.544-9.348 38.049-19.326 54.538-30.674 18.114-10.082 32.348-19.707 51.087-30.254l209.51-123.802c18.278-11.469 34.509-19.046 52.787-30.72 15.477-10.959 33.12-20.868 51.773-28.874l1.884 396.029c-16.23 11.469-32.973 21.146-50.893 32.512-34.304 21.811-355.84 225.894-370.688 229.53v-413.747zM384.563 901.427c0-44.493 121.702-78.080 205.466-44.39 32.051 12.902 69.376 35.84 35.84 71.322-25.769 19.806-58.486 31.741-93.991 31.741-1.949 0-3.89-0.036-5.821-0.107l-26.089 0.008c-59.29-2.56-115.405-22.426-115.405-58.573z" />
</font>
</defs>
</svg>
